<?xml version="1.0" encoding="UTF-8" standalone="no"?>
<svg width="200px" height="36px" viewBox="0 0 200 36" version="1.1" xmlns="http://www.w3.org/2000/svg" xmlns:xlink="http://www.w3.org/1999/xlink">
    <!-- Generator: Sketch 43.2 (39069) - http://www.bohemiancoding.com/sketch -->
    <title>Group</title>
    <desc>Created with Sketch.</desc>
    <defs>
        <path d="M41.2095794,27.36 L41.2095794,1.23264 L46.9390121,1.23264 L46.9390121,27.36 L41.2095794,27.36 Z M57.9530218,4.65408 C57.9530218,5.09184219 57.8667361,5.5007981 57.6941619,5.88096 C57.5215878,6.2611219 57.2914924,6.58943862 57.0038688,6.86592 C56.7162453,7.14240138 56.3711022,7.36127919 55.9684292,7.52256 C55.5657562,7.68384081 55.1458321,7.76448 54.7086443,7.76448 C53.7882489,7.76448 53.0174294,7.45920305 52.3961625,6.84864 C51.7748956,6.23807695 51.4642668,5.50656426 51.4642668,4.65408 C51.4642668,4.23935793 51.5448002,3.8419219 51.7058694,3.46176 C51.8669386,3.0815981 52.097034,2.75328138 52.3961625,2.4768 C52.695291,2.20031862 53.0404341,1.97568086 53.4316021,1.80288 C53.8227701,1.63007914 54.2484466,1.54368 54.7086443,1.54368 C55.1458321,1.54368 55.5657562,1.62431919 55.9684292,1.7856 C56.3711022,1.94688081 56.7162453,2.16575862 57.0038688,2.44224 C57.2914924,2.71872138 57.5215878,3.0470381 57.6941619,3.4272 C57.8667361,3.8073619 57.9530218,4.21631781 57.9530218,4.65408 Z M51.8784427,27.36 L51.8784427,10.14912 L57.538846,10.14912 L57.538846,27.36 L51.8784427,27.36 Z M73.0742755,5.4144 C72.8671865,5.34527965 72.6255864,5.28768023 72.3494678,5.2416 C72.0733491,5.19551977 71.7972347,5.17248 71.5211161,5.17248 C70.9918887,5.17248 70.5662122,5.26463908 70.2440738,5.44896 C69.9219355,5.63328092 69.6688305,5.88095844 69.4847514,6.192 C69.3006724,6.50304156 69.1741199,6.85439804 69.1050902,7.24608 C69.0360606,7.63776196 69.0015463,8.02943804 69.0015463,8.42112 L69.0015463,10.14912 L72.8326729,10.14912 L72.8326729,14.4 L69.0015463,14.4 L69.0015463,22.03875 L69.0015463,27.36 L63.3411429,27.36 L63.3411429,20.6634375 L63.3411429,14.4 L60.2003094,14.4 L60.2003094,10.14912 L63.3411429,10.14912 L63.3411429,8.49024 C63.3411429,7.4303947 63.4561906,6.42240478 63.6862895,5.46624 C63.9163883,4.51007522 64.3133029,3.66912363 64.8770451,2.94336 C65.4407872,2.21759637 66.200102,1.64160213 67.1550123,1.21536 C68.1099225,0.789117869 69.3006661,0.576 70.727279,0.576 C71.2104866,0.576 71.6879345,0.604799712 72.1596372,0.6624 C72.6313398,0.720000288 73.0627687,0.806399424 73.4539367,0.9216 L73.0742755,5.4144 Z M80.6713345,14.4 L80.6713345,20.9664 C80.6713345,21.772804 80.8266489,22.377598 81.1372823,22.7808 C81.4479158,23.184002 82.0058971,23.3856 82.8112431,23.3856 C83.0873617,23.3856 83.3807333,23.3625602 83.6913668,23.31648 C84.0020002,23.2703998 84.2608575,23.2012805 84.4679465,23.10912 L84.5369758,27.25632 C84.1458078,27.3945607 83.6511027,27.5155195 83.0528456,27.6192 C82.4545886,27.7228805 81.8563406,27.77472 81.2580836,27.77472 C80.1075894,27.77472 79.1411887,27.6307214 78.3588526,27.34272 C77.5765166,27.0547186 76.9495066,26.6400027 76.477804,26.09856 C76.0061013,25.5571173 75.6667106,24.9120037 75.4596217,24.1632 C75.2525327,23.4143963 75.1489898,22.5792046 75.1489898,21.6576 L75.1489898,14.4 L72.3878174,14.4 L72.3878174,10.14912 L75.1144751,10.14912 L75.1144751,5.62176 L80.6713345,5.62176 L80.6713345,10.14912 L84.7095491,10.14912 L84.7095491,14.4 L80.6713345,14.4 Z M87.819703,27.36 L87.819703,1.23264 L93.5491356,1.23264 L93.5491356,27.36 L87.819703,27.36 Z M116.643274,18.68544 C116.643274,20.090887 116.39017,21.3638343 115.883952,22.50432 C115.377735,23.6448057 114.687448,24.612476 113.813073,25.40736 C112.938697,26.202244 111.926277,26.8185578 110.775783,27.25632 C109.625289,27.6940822 108.394279,27.91296 107.082715,27.91296 C105.794162,27.91296 104.568904,27.6940822 103.406904,27.25632 C102.244905,26.8185578 101.232486,26.202244 100.369615,25.40736 C99.5067442,24.612476 98.8222104,23.6448057 98.3159929,22.50432 C97.8097754,21.3638343 97.5566705,20.090887 97.5566705,18.68544 C97.5566705,17.279993 97.8097754,16.0128056 98.3159929,14.88384 C98.8222104,13.7548744 99.5067442,12.7987239 100.369615,12.01536 C101.232486,11.2319961 102.244905,10.6329621 103.406904,10.21824 C104.568904,9.80351793 105.794162,9.59616 107.082715,9.59616 C108.394279,9.59616 109.625289,9.80351793 110.775783,10.21824 C111.926277,10.6329621 112.938697,11.2319961 113.813073,12.01536 C114.687448,12.7987239 115.377735,13.7548744 115.883952,14.88384 C116.39017,16.0128056 116.643274,17.279993 116.643274,18.68544 Z M111.189959,18.68544 C111.189959,18.1324772 111.097921,17.5910426 110.913842,17.06112 C110.729763,16.5311974 110.465153,16.064642 110.120005,15.66144 C109.774856,15.258238 109.34918,14.9299213 108.842963,14.67648 C108.336745,14.4230387 107.750002,14.29632 107.082715,14.29632 C106.415429,14.29632 105.828685,14.4230387 105.322468,14.67648 C104.81625,14.9299213 104.396326,15.258238 104.062683,15.66144 C103.72904,16.064642 103.475935,16.5311974 103.30336,17.06112 C103.130786,17.5910426 103.044501,18.1324772 103.044501,18.68544 C103.044501,19.2384028 103.130786,19.7798374 103.30336,20.30976 C103.475935,20.8396826 103.734792,21.3177579 104.07994,21.744 C104.425088,22.1702421 104.850765,22.5100787 105.356982,22.76352 C105.8632,23.0169613 106.449943,23.14368 107.11723,23.14368 C107.784516,23.14368 108.37126,23.0169613 108.877477,22.76352 C109.383695,22.5100787 109.809371,22.1702421 110.154519,21.744 C110.499668,21.3177579 110.758525,20.8396826 110.931099,20.30976 C111.103673,19.7798374 111.189959,19.2384028 111.189959,18.68544 Z M138.840032,25.73568 C138.840032,27.4176084 138.598432,28.8806338 138.115225,30.1248 C137.632017,31.3689662 136.953236,32.3999959 136.07886,33.21792 C135.204484,34.0358441 134.140293,34.646398 132.886254,35.0496 C131.632216,35.452802 130.245891,35.6544 128.727239,35.6544 C127.208586,35.6544 125.64969,35.4240023 124.050503,34.9632 C122.451316,34.5023977 121.064991,33.8342444 119.891487,32.95872 L122.721689,28.9152 C123.550044,29.6524837 124.464674,30.1996782 125.465604,30.5568 C126.466534,30.9139218 127.450191,31.09248 128.416607,31.09248 C130.073318,31.09248 131.298576,30.6547244 132.092417,29.7792 C132.886258,28.9036756 133.283173,27.7401673 133.283173,26.28864 L133.283173,25.25184 L133.179629,25.25184 C132.650402,25.9430435 131.937106,26.4959979 131.03972,26.91072 C130.142335,27.3254421 129.11841,27.5328 127.967916,27.5328 C126.656353,27.5328 125.494371,27.2966424 124.481936,26.82432 C123.469501,26.3519976 122.612396,25.712644 121.910594,24.90624 C121.208793,24.099836 120.673821,23.1609654 120.305663,22.0896 C119.937505,21.0182346 119.753428,19.883526 119.753428,18.68544 C119.753428,17.487354 119.937505,16.3468854 120.305663,15.264 C120.673821,14.1811146 121.208793,13.2249641 121.910594,12.39552 C122.612396,11.5660759 123.469501,10.9036825 124.481936,10.40832 C125.494371,9.91295752 126.644848,9.66528 127.933401,9.66528 C129.014866,9.66528 130.050295,9.88415781 131.03972,10.32192 C132.029145,10.7596822 132.822975,11.4393554 133.421232,12.36096 L133.490261,12.36096 L133.490261,10.14912 L138.840032,10.14912 L138.840032,25.73568 Z M133.455746,18.65088 C133.455746,18.0748771 133.357956,17.5219226 133.162372,16.992 C132.966788,16.4620774 132.684921,15.995522 132.316763,15.59232 C131.948604,15.189118 131.511423,14.8723212 131.005206,14.64192 C130.498988,14.4115188 129.92375,14.29632 129.279473,14.29632 C128.635196,14.29632 128.06571,14.4115188 127.570998,14.64192 C127.076285,14.8723212 126.656361,15.183358 126.311213,15.57504 C125.966064,15.966722 125.701455,16.4275174 125.517376,16.95744 C125.333297,17.4873626 125.241258,18.051837 125.241258,18.65088 C125.241258,19.2268829 125.333297,19.7798374 125.517376,20.30976 C125.701455,20.8396826 125.966064,21.306238 126.311213,21.70944 C126.656361,22.112642 127.076285,22.4351988 127.570998,22.67712 C128.06571,22.9190412 128.635196,23.04 129.279473,23.04 C129.92375,23.04 130.504741,22.9190412 131.022463,22.67712 C131.540185,22.4351988 131.977367,22.118402 132.33402,21.72672 C132.690673,21.335038 132.966788,20.8742426 133.162372,20.34432 C133.357956,19.8143974 133.455746,19.249923 133.455746,18.65088 Z M161.934171,25.73568 C161.934171,27.4176084 161.692571,28.8806338 161.209363,30.1248 C160.726156,31.3689662 160.047374,32.3999959 159.172999,33.21792 C158.298623,34.0358441 157.234432,34.646398 155.980393,35.0496 C154.726355,35.452802 153.34003,35.6544 151.821377,35.6544 C150.302725,35.6544 148.743829,35.4240023 147.144642,34.9632 C145.545455,34.5023977 144.15913,33.8342444 142.985626,32.95872 L145.815827,28.9152 C146.644183,29.6524837 147.558813,30.1996782 148.559743,30.5568 C149.560673,30.9139218 150.54433,31.09248 151.510745,31.09248 C153.167457,31.09248 154.392715,30.6547244 155.186556,29.7792 C155.980397,28.9036756 156.377312,27.7401673 156.377312,26.28864 L156.377312,25.25184 L156.273768,25.25184 C155.74454,25.9430435 155.031245,26.4959979 154.133859,26.91072 C153.236474,27.3254421 152.212549,27.5328 151.062055,27.5328 C149.750492,27.5328 148.58851,27.2966424 147.576075,26.82432 C146.56364,26.3519976 145.706535,25.712644 145.004733,24.90624 C144.302932,24.099836 143.76796,23.1609654 143.399802,22.0896 C143.031644,21.0182346 142.847567,19.883526 142.847567,18.68544 C142.847567,17.487354 143.031644,16.3468854 143.399802,15.264 C143.76796,14.1811146 144.302932,13.2249641 145.004733,12.39552 C145.706535,11.5660759 146.56364,10.9036825 147.576075,10.40832 C148.58851,9.91295752 149.738987,9.66528 151.02754,9.66528 C152.109005,9.66528 153.144434,9.88415781 154.133859,10.32192 C155.123284,10.7596822 155.917113,11.4393554 156.51537,12.36096 L156.5844,12.36096 L156.5844,10.14912 L161.934171,10.14912 L161.934171,25.73568 Z M156.549885,18.65088 C156.549885,18.0748771 156.452095,17.5219226 156.25651,16.992 C156.060926,16.4620774 155.77906,15.995522 155.410901,15.59232 C155.042743,15.189118 154.605562,14.8723212 154.099345,14.64192 C153.593127,14.4115188 153.017889,14.29632 152.373612,14.29632 C151.729335,14.29632 151.159849,14.4115188 150.665136,14.64192 C150.170424,14.8723212 149.7505,15.183358 149.405352,15.57504 C149.060203,15.966722 148.795594,16.4275174 148.611515,16.95744 C148.427435,17.4873626 148.335397,18.051837 148.335397,18.65088 C148.335397,19.2268829 148.427435,19.7798374 148.611515,20.30976 C148.795594,20.8396826 149.060203,21.306238 149.405352,21.70944 C149.7505,22.112642 150.170424,22.4351988 150.665136,22.67712 C151.159849,22.9190412 151.729335,23.04 152.373612,23.04 C153.017889,23.04 153.59888,22.9190412 154.116602,22.67712 C154.634324,22.4351988 155.071506,22.118402 155.428159,21.72672 C155.784812,21.335038 156.060926,20.8742426 156.25651,20.34432 C156.452095,19.8143974 156.549885,19.249923 156.549885,18.65088 Z M178.643099,16.78464 C178.643099,15.8860755 178.361232,15.1142432 177.79749,14.46912 C177.233748,13.8239968 176.388147,13.50144 175.260663,13.50144 C174.708426,13.50144 174.202216,13.5878391 173.742018,13.76064 C173.28182,13.9334409 172.879153,14.1695985 172.534005,14.46912 C172.188857,14.7686415 171.912742,15.119998 171.705653,15.5232 C171.498564,15.926402 171.383517,16.3468778 171.360507,16.78464 L178.643099,16.78464 Z M183.854812,18.96192 L183.854812,19.65312 C183.854812,19.8835212 183.843307,20.102399 183.820297,20.30976 L171.360507,20.30976 C171.406527,20.7936024 171.550336,21.231358 171.79194,21.62304 C172.033544,22.014722 172.344173,22.3545586 172.723836,22.64256 C173.103499,22.9305614 173.529175,23.1551992 174.000878,23.31648 C174.472581,23.4777608 174.961533,23.5584 175.467751,23.5584 C176.365136,23.5584 177.124451,23.3913617 177.745718,23.05728 C178.366985,22.7231983 178.873195,22.2912026 179.264363,21.76128 L183.199033,24.2496 C182.393687,25.4246459 181.329496,26.3289568 180.006428,26.96256 C178.683359,27.5961632 177.147473,27.91296 175.398721,27.91296 C174.110168,27.91296 172.890662,27.711362 171.740168,27.30816 C170.589674,26.904958 169.583006,26.3174439 168.720136,25.5456 C167.857265,24.7737561 167.178484,23.8233656 166.683771,22.6944 C166.189059,21.5654344 165.941706,20.2752073 165.941706,18.82368 C165.941706,17.418233 166.183306,16.1452857 166.666514,15.0048 C167.149721,13.8643143 167.805493,12.896644 168.633849,12.10176 C169.462205,11.306876 170.44011,10.6905622 171.567595,10.2528 C172.695079,9.81503781 173.914585,9.59616 175.226148,9.59616 C176.491692,9.59616 177.653674,9.80927787 178.712128,10.23552 C179.770583,10.6617621 180.67946,11.278076 181.438786,12.08448 C182.198112,12.890884 182.790608,13.8700742 183.216291,15.02208 C183.641974,16.1740858 183.854812,17.4873526 183.854812,18.96192 Z M198.907036,14.78016 C198.653927,14.7110397 198.406575,14.6649601 198.164971,14.64192 C197.923367,14.6188799 197.687519,14.60736 197.457421,14.60736 C196.698094,14.60736 196.05958,14.7455986 195.541857,15.02208 C195.024135,15.2985614 194.609963,15.632638 194.29933,16.02432 C193.988696,16.416002 193.764353,16.8422377 193.626294,17.30304 C193.488235,17.7638423 193.419206,18.1670383 193.419206,18.51264 L193.419206,27.36 L187.758803,27.36 L187.758803,10.14912 L193.212118,10.14912 L193.212118,12.63744 L193.281147,12.63744 C193.718335,11.7619156 194.339593,11.0476828 195.144939,10.49472 C195.950285,9.94175724 196.882171,9.66528 197.940626,9.66528 C198.170725,9.66528 198.395068,9.67679988 198.613662,9.69984 C198.832255,9.72288012 199.010579,9.75743977 199.148639,9.80352 L198.907036,14.78016 Z" id="path-1"></path>
    </defs>
    <g id="Page-1" stroke="none" stroke-width="1" fill="none" fill-rule="evenodd">
        <g id="Group">
            <polygon id="Line" fill="#FEFEFE" fill-rule="nonzero" points="36.055391 14.4 0.102625884 14.4 0.102625884 18.72 36.055391 18.72"></polygon>
            <polygon id="Line-Copy-10" fill="#D05252" fill-rule="nonzero" transform="translate(22.469496, 16.675200) rotate(23.000000) translate(-22.469496, -16.675200) " points="19.5932748 2.9952 19.5932748 30.3552 25.3457172 30.3552 25.3457172 2.9952"></polygon>
            <polygon id="Line-Copy-11" fill="#D05252" fill-rule="nonzero" transform="translate(15.278943, 16.675200) rotate(23.000000) translate(-15.278943, -16.675200) " points="12.4027218 2.9952 12.4027218 30.3552 18.1551642 30.3552 18.1551642 2.9952"></polygon>
            <polygon id="Line-Copy-12" fill="#D05252" fill-rule="nonzero" transform="translate(8.088390, 16.675200) rotate(23.000000) translate(-8.088390, -16.675200) " points="5.21216876 2.9952 5.21216876 30.3552 10.9646112 30.3552 10.9646112 2.9952"></polygon>
            <mask id="mask-2" fill="white">
                <use xlink:href="#path-1"></use>
            </mask>
            <use id="liftlogger" fill="#FEFEFE" xlink:href="#path-1"></use>
        </g>
    </g>
</svg>