<?xml version="1.0" encoding="UTF-8" standalone="no"?>
<svg width="377px" height="202px" viewBox="0 0 377 202" version="1.1" xmlns="http://www.w3.org/2000/svg" xmlns:xlink="http://www.w3.org/1999/xlink">
    <!-- Generator: Sketch 43.2 (39069) - http://www.bohemiancoding.com/sketch -->
    <title>Group 2</title>
    <desc>Created with Sketch.</desc>
    <defs></defs>
    <g id="Page-1" stroke="none" stroke-width="1" fill="none" fill-rule="evenodd">
        <g id="Group-2" transform="translate(0.000000, 5.000000)">
            <g id="Group" transform="translate(59.000000, 0.000000)">
                <polyline id="Line" stroke="#252525" stroke-width="12" stroke-linecap="square" points="0.19286872 63.2231884 173.847656 63.2231884 237.807444 63.2231884"></polyline>
                <rect id="Rectangle" fill="#FFFFFF" transform="translate(110.094280, 62.837681) rotate(-270.000000) translate(-110.094280, -62.837681) " x="68.4346361" y="48.6269178" width="83.3192869" height="28.4215266"></rect>
                <rect id="Rectangle" fill="#FFFFFF" transform="translate(40.502431, 62.837681) rotate(-270.000000) translate(-40.502431, -62.837681) " x="-1.15721232" y="58.9826087" width="83.3192869" height="7.71014493"></rect>
                <rect id="Rectangle-Copy" fill="#FFFFFF" transform="translate(25.072934, 62.837681) rotate(-270.000000) translate(-25.072934, -62.837681) " x="-16.5867099" y="58.9826087" width="83.3192869" height="7.71014493"></rect>
                <rect id="Rectangle-Copy-2" fill="#FFFFFF" transform="translate(208.298217, 63.223188) rotate(-270.000000) translate(-208.298217, -63.223188) " x="166.638574" y="59.3681159" width="83.3192869" height="7.71014493"></rect>
                <rect id="Rectangle-Copy-3" fill="#FFFFFF" transform="translate(192.868720, 63.223188) rotate(-270.000000) translate(-192.868720, -63.223188) " x="151.209076" y="59.3681159" width="83.3192869" height="7.71014493"></rect>
                <path d="M32.7876823,36.9315834 L32.7876823,92.1365448" id="Line" stroke="#D93B3B" stroke-width="20" stroke-linecap="square"></path>
                <path d="M201,37.308395 L201,92.5133564" id="Line-Copy" stroke="#D93B3B" stroke-width="20" stroke-linecap="square"></path>
                <path d="M86.3826613,21.0189012 C86.3826613,21.0189012 112.245122,15.20209 127.21316,7.0386336 C132.795017,3.99433026 139.662474,0.224772617 139.662474,0.224772617 C139.662474,0.224772617 146.700851,4.74275018 149.684565,17.2519365 C152.668279,29.7611228 149.75891,35.3260389 149.75891,35.3260389 C149.75891,35.3260389 143.713653,34.2916412 136.070395,33.9269458 C120.009412,33.1606017 90.3581733,40.9885734 90.3581733,40.9885734 C90.3581733,40.9885734 86.9089911,35.7601401 85.9807253,31.0973031 C85.0524595,26.4344661 86.3826613,21.0189012 86.3826613,21.0189012 Z M100.08491,39.9521295 C100.08491,39.9521295 101.364467,38.6127473 102.884399,38.3294707 C104.404332,38.0461941 106.025908,38.8448795 106.025908,38.8448795 L131.7033,130.171228 C131.7033,130.171228 130.801873,132.070382 129.057249,132.724965 C127.312625,133.379547 125.546285,132.481339 125.546285,132.481339 L100.08491,39.9521295 Z" id="Path" stroke="#404040" stroke-width="8" fill="#D8D8D8"></path>
            </g>
            <text id="WorkoutLogger" font-family="AvenirNext-Bold, Avenir Next" font-size="48" font-weight="bold" letter-spacing="0.8461539" fill="#252525">
                <tspan x="0" y="185">WorkoutLogger</tspan>
            </text>
        </g>
    </g>
</svg>