<?xml version="1.0" encoding="UTF-8" standalone="no"?>
<svg width="146px" height="27px" viewBox="0 0 146 27" version="1.1" xmlns="http://www.w3.org/2000/svg" xmlns:xlink="http://www.w3.org/1999/xlink">
    <!-- Generator: Sketch 43.2 (39069) - http://www.bohemiancoding.com/sketch -->
    <title>Group</title>
    <desc>Created with Sketch.</desc>
    <defs>
        <path d="M28,20.088 L28,0.49248 L32.2637638,0.49248 L32.2637638,20.088 L28,20.088 Z M40.4602362,3.05856 C40.4602362,3.38688164 40.3960236,3.69359857 40.2675963,3.97872 C40.139169,4.26384143 39.9679352,4.51007896 39.7538898,4.71744 C39.5398444,4.92480104 39.2829937,5.0889594 38.9833301,5.20992 C38.6836665,5.3308806 38.3711648,5.39136 38.0458157,5.39136 C37.3608703,5.39136 36.7872372,5.16240229 36.324899,4.70448 C35.8625609,4.24655771 35.6313953,3.6979232 35.6313953,3.05856 C35.6313953,2.74751844 35.6913271,2.44944143 35.8111925,2.16432 C35.931058,1.87919857 36.1022918,1.63296104 36.324899,1.4256 C36.5475063,1.21823896 36.8043569,1.04976065 37.0954587,0.92016 C37.3865605,0.790559352 37.703343,0.72576 38.0458157,0.72576 C38.3711648,0.72576 38.6836665,0.786239395 38.9833301,0.9072 C39.2829937,1.0281606 39.5398444,1.19231896 39.7538898,1.39968 C39.9679352,1.60704104 40.139169,1.85327857 40.2675963,2.1384 C40.3960236,2.42352143 40.4602362,2.73023836 40.4602362,3.05856 Z M35.9396191,20.088 L35.9396191,7.17984 L40.1520123,7.17984 L40.1520123,20.088 L35.9396191,20.088 Z M51.7132622,3.6288 C51.5591495,3.57695974 51.379354,3.53376017 51.1738704,3.4992 C50.9683868,3.46463983 50.7629062,3.44736 50.5574226,3.44736 C50.163579,3.44736 49.8467965,3.51647931 49.6070656,3.65472 C49.3673347,3.79296069 49.1789776,3.97871883 49.0419885,4.212 C48.9049994,4.44528117 48.8108208,4.70879853 48.7594499,5.00256 C48.708079,5.29632147 48.6823939,5.59007853 48.6823939,5.88384 L48.6823939,7.17984 L51.5334649,7.17984 L51.5334649,10.368 L48.6823939,10.368 L48.6823939,16.0970625 L48.6823939,20.088 L44.4700008,20.088 L44.4700008,15.0655781 L44.4700008,10.368 L42.1326362,10.368 L42.1326362,7.17984 L44.4700008,7.17984 L44.4700008,5.93568 C44.4700008,5.14079603 44.5556176,4.38480359 44.726854,3.66768 C44.8980903,2.95055641 45.1934686,2.31984272 45.6129977,1.77552 C46.0325267,1.23119728 46.5975982,0.799201598 47.3082291,0.47952 C48.0188599,0.159838402 48.9049948,0 49.9666602,0 C50.3262565,0 50.6815666,0.021599784 51.0326011,0.0648 C51.3836356,0.108000216 51.704699,0.172799568 51.9958008,0.2592 L51.7132622,3.6288 Z M57.3668875,10.368 L57.3668875,15.2928 C57.3668875,15.897603 57.4824703,16.3511985 57.7136394,16.6536 C57.9448084,16.9560015 58.3600504,17.1072 58.9593776,17.1072 C59.1648612,17.1072 59.3831843,17.0899202 59.6143534,17.05536 C59.8455224,17.0207998 60.0381604,16.9689603 60.1922732,16.89984 L60.2436438,20.01024 C59.952542,20.1139205 59.5843894,20.2046396 59.1391749,20.2824 C58.6939604,20.3601604 58.2487525,20.39904 57.803538,20.39904 C56.9473562,20.39904 56.2281744,20.2910411 55.6459708,20.07504 C55.0637672,19.8590389 54.5971551,19.548002 54.2461206,19.14192 C53.8950861,18.735838 53.6425162,18.2520028 53.4884035,17.6904 C53.3342908,17.1287972 53.2572356,16.5024035 53.2572356,15.8112 L53.2572356,10.368 L51.2024097,10.368 L51.2024097,7.17984 L53.2315503,7.17984 L53.2315503,3.78432 L57.3668875,3.78432 L57.3668875,7.17984 L60.3720704,7.17984 L60.3720704,10.368 L57.3668875,10.368 Z M62.6866036,20.088 L62.6866036,0.49248 L66.9503674,0.49248 L66.9503674,20.088 L62.6866036,20.088 Z M84.1367033,13.58208 C84.1367033,14.6361653 83.9483461,15.5908757 83.5716262,16.44624 C83.1949062,17.3016043 82.6812048,18.027357 82.0305067,18.62352 C81.3798086,19.219683 80.6263799,19.6819184 79.7701982,20.01024 C78.9140164,20.3385616 77.9979157,20.50272 77.0218685,20.50272 C76.0629449,20.50272 75.151125,20.3385616 74.2863814,20.01024 C73.4216378,19.6819184 72.6682092,19.219683 72.0260729,18.62352 C71.3839366,18.027357 70.8745161,17.3016043 70.4977961,16.44624 C70.1210761,15.5908757 69.932719,14.6361653 69.932719,13.58208 C69.932719,12.5279947 70.1210761,11.5776042 70.4977961,10.73088 C70.8745161,9.88415577 71.3839366,9.16704294 72.0260729,8.57952 C72.6682092,7.99199706 73.4216378,7.54272156 74.2863814,7.23168 C75.151125,6.92063844 76.0629449,6.76512 77.0218685,6.76512 C77.9979157,6.76512 78.9140164,6.92063844 79.7701982,7.23168 C80.6263799,7.54272156 81.3798086,7.99199706 82.0305067,8.57952 C82.6812048,9.16704294 83.1949062,9.88415577 83.5716262,10.73088 C83.9483461,11.5776042 84.1367033,12.5279947 84.1367033,13.58208 Z M80.078422,13.58208 C80.078422,13.1673579 80.0099285,12.761282 79.8729395,12.36384 C79.7359504,11.966398 79.5390315,11.6164815 79.282177,11.31408 C79.0253225,11.0116785 78.70854,10.765441 78.33182,10.57536 C77.9551,10.385279 77.5184539,10.29024 77.0218685,10.29024 C76.525283,10.29024 76.0886369,10.385279 75.7119169,10.57536 C75.3351969,10.765441 75.0226953,11.0116785 74.7744026,11.31408 C74.5261099,11.6164815 74.3377527,11.966398 74.2093254,12.36384 C74.0808982,12.761282 74.0166855,13.1673579 74.0166855,13.58208 C74.0166855,13.9968021 74.0808982,14.402878 74.2093254,14.80032 C74.3377527,15.197762 74.5303907,15.5563184 74.7872452,15.876 C75.0440998,16.1956816 75.3608823,16.450559 75.7376022,16.64064 C76.1143222,16.830721 76.5509684,16.92576 77.0475538,16.92576 C77.5441392,16.92576 77.9807853,16.830721 78.3575053,16.64064 C78.7342253,16.450559 79.0510078,16.1956816 79.3078623,15.876 C79.5647168,15.5563184 79.7573549,15.197762 79.8857821,14.80032 C80.0142094,14.402878 80.078422,13.9968021 80.078422,13.58208 Z M100.655221,18.86976 C100.655221,20.1312063 100.475425,21.2284753 100.115829,22.1616 C99.7562326,23.0947247 99.2510929,23.8679969 98.6003948,24.48144 C97.9496967,25.0948831 97.1577404,25.5527985 96.2245023,25.8552 C95.2912642,26.1576015 94.2595807,26.3088 93.1294207,26.3088 C91.9992608,26.3088 90.8391519,26.1360017 89.6490593,25.7904 C88.4589666,25.4447983 87.4272831,24.9436833 86.5539777,24.28704 L88.6601743,21.2544 C89.2766252,21.8073628 89.9572795,22.2177587 90.7021576,22.4856 C91.4470357,22.7534413 92.1790601,22.88736 92.8982528,22.88736 C94.1311545,22.88736 95.0429744,22.5590433 95.6337398,21.9024 C96.2245053,21.2457567 96.5198835,20.3731254 96.5198835,19.28448 L96.5198835,18.50688 L96.4428276,18.50688 C96.048984,19.0252826 95.5181592,19.4399984 94.8503375,19.75104 C94.1825157,20.0620816 93.4205254,20.2176 92.5643436,20.2176 C91.5882964,20.2176 90.7235658,20.0404818 89.9701258,19.68624 C89.2166859,19.3319982 88.5788401,18.852483 88.0565692,18.24768 C87.5342983,17.642877 87.1361798,16.938724 86.8622016,16.1352 C86.5882234,15.331676 86.4512364,14.4806445 86.4512364,13.58208 C86.4512364,12.6835155 86.5882234,11.8281641 86.8622016,11.016 C87.1361798,10.2038359 87.5342983,9.48672311 88.0565692,8.86464 C88.5788401,8.24255689 89.2166859,7.74576186 89.9701258,7.37424 C90.7235658,7.00271814 91.5797347,6.81696 92.5386583,6.81696 C93.3434691,6.81696 94.1140211,6.98111836 94.8503375,7.30944 C95.5866538,7.63776164 96.1774103,8.14751654 96.6226248,8.83872 L96.6739955,8.83872 L96.6739955,7.17984 L100.655221,7.17984 L100.655221,18.86976 Z M96.6483102,13.55616 C96.6483102,13.1241578 96.5755358,12.709442 96.4299849,12.312 C96.284434,11.914558 96.0746726,11.5646415 95.8006945,11.26224 C95.5267163,10.9598385 95.2013721,10.7222409 94.8246521,10.54944 C94.4479322,10.3766391 94.0198477,10.29024 93.5403859,10.29024 C93.0609241,10.29024 92.6371205,10.3766391 92.2689624,10.54944 C91.9008042,10.7222409 91.5883026,10.9555185 91.331448,11.24928 C91.0745935,11.5430415 90.8776747,11.888638 90.7406856,12.28608 C90.6036965,12.683522 90.535203,13.1068778 90.535203,13.55616 C90.535203,13.9881622 90.6036965,14.402878 90.7406856,14.80032 C90.8776747,15.197762 91.0745935,15.5476785 91.331448,15.85008 C91.5883026,16.1524815 91.9008042,16.3943991 92.2689624,16.57584 C92.6371205,16.7572809 93.0609241,16.848 93.5403859,16.848 C94.0198477,16.848 94.452213,16.7572809 94.8374948,16.57584 C95.2227766,16.3943991 95.5481208,16.1568015 95.8135371,15.86304 C96.0789535,15.5692785 96.284434,15.223682 96.4299849,14.82624 C96.5755358,14.428798 96.6483102,14.0054422 96.6483102,13.55616 Z M117.841557,18.86976 C117.841557,20.1312063 117.661761,21.2284753 117.302165,22.1616 C116.942568,23.0947247 116.437429,23.8679969 115.786731,24.48144 C115.136033,25.0948831 114.344076,25.5527985 113.410838,25.8552 C112.4776,26.1576015 111.445917,26.3088 110.315757,26.3088 C109.185597,26.3088 108.025488,26.1360017 106.835395,25.7904 C105.645303,25.4447983 104.613619,24.9436833 103.740314,24.28704 L105.84651,21.2544 C106.462961,21.8073628 107.143615,22.2177587 107.888493,22.4856 C108.633372,22.7534413 109.365396,22.88736 110.084589,22.88736 C111.31749,22.88736 112.22931,22.5590433 112.820076,21.9024 C113.410841,21.2457567 113.706219,20.3731254 113.706219,19.28448 L113.706219,18.50688 L113.629163,18.50688 C113.23532,19.0252826 112.704495,19.4399984 112.036673,19.75104 C111.368852,20.0620816 110.606861,20.2176 109.750679,20.2176 C108.774632,20.2176 107.909902,20.0404818 107.156462,19.68624 C106.403022,19.3319982 105.765176,18.852483 105.242905,18.24768 C104.720634,17.642877 104.322516,16.938724 104.048537,16.1352 C103.774559,15.331676 103.637572,14.4806445 103.637572,13.58208 C103.637572,12.6835155 103.774559,11.8281641 104.048537,11.016 C104.322516,10.2038359 104.720634,9.48672311 105.242905,8.86464 C105.765176,8.24255689 106.403022,7.74576186 107.156462,7.37424 C107.909902,7.00271814 108.766071,6.81696 109.724994,6.81696 C110.529805,6.81696 111.300357,6.98111836 112.036673,7.30944 C112.77299,7.63776164 113.363746,8.14751654 113.808961,8.83872 L113.860331,8.83872 L113.860331,7.17984 L117.841557,7.17984 L117.841557,18.86976 Z M113.834646,13.55616 C113.834646,13.1241578 113.761872,12.709442 113.616321,12.312 C113.47077,11.914558 113.261009,11.5646415 112.98703,11.26224 C112.713052,10.9598385 112.387708,10.7222409 112.010988,10.54944 C111.634268,10.3766391 111.206184,10.29024 110.726722,10.29024 C110.24726,10.29024 109.823456,10.3766391 109.455298,10.54944 C109.08714,10.7222409 108.774638,10.9555185 108.517784,11.24928 C108.260929,11.5430415 108.064011,11.888638 107.927021,12.28608 C107.790032,12.683522 107.721539,13.1068778 107.721539,13.55616 C107.721539,13.9881622 107.790032,14.402878 107.927021,14.80032 C108.064011,15.197762 108.260929,15.5476785 108.517784,15.85008 C108.774638,16.1524815 109.08714,16.3943991 109.455298,16.57584 C109.823456,16.7572809 110.24726,16.848 110.726722,16.848 C111.206184,16.848 111.638549,16.7572809 112.023831,16.57584 C112.409112,16.3943991 112.734457,16.1568015 112.999873,15.86304 C113.265289,15.5692785 113.47077,15.223682 113.616321,14.82624 C113.761872,14.428798 113.834646,14.0054422 113.834646,13.55616 Z M130.276108,12.15648 C130.276108,11.4825566 130.066346,10.9036824 129.646817,10.41984 C129.227288,9.93599758 128.598004,9.69408 127.758946,9.69408 C127.347979,9.69408 126.971264,9.75887935 126.628791,9.88848 C126.286319,10.0180806 125.98666,10.1951989 125.729805,10.41984 C125.472951,10.6444811 125.26747,10.9079985 125.113357,11.2104 C124.959245,11.5128015 124.873628,11.8281584 124.856504,12.15648 L130.276108,12.15648 Z M134.154592,13.78944 L134.154592,14.30784 C134.154592,14.4806409 134.14603,14.6447992 134.128906,14.80032 L124.856504,14.80032 C124.890751,15.1632018 124.997773,15.4915185 125.177571,15.78528 C125.357369,16.0790415 125.588534,16.3339189 125.871074,16.54992 C126.153614,16.7659211 126.470397,16.9343994 126.821431,17.05536 C127.172466,17.1763206 127.536338,17.2368 127.913058,17.2368 C128.580879,17.2368 129.145951,17.1115213 129.608289,16.86096 C130.070627,16.6103987 130.447342,16.286402 130.738443,15.88896 L133.66657,17.7552 C133.067243,18.6364844 132.275287,19.3147176 131.290678,19.78992 C130.306069,20.2651224 129.163083,20.50272 127.861687,20.50272 C126.902763,20.50272 125.995224,20.3515215 125.139043,20.04912 C124.282861,19.7467185 123.533713,19.3060829 122.891577,18.7272 C122.24944,18.1483171 121.744301,17.4355242 121.376143,16.5888 C121.007985,15.7420758 120.823908,14.7744054 120.823908,13.68576 C120.823908,12.6316747 121.003704,11.6769643 121.3633,10.8216 C121.722896,9.96623572 122.210913,9.24048298 122.827363,8.64432 C123.443814,8.04815702 124.171558,7.58592164 125.010616,7.2576 C125.849674,6.92927836 126.757213,6.76512 127.73326,6.76512 C128.67506,6.76512 129.539791,6.9249584 130.327478,7.24464 C131.115165,7.5643216 131.791539,8.02655698 132.356619,8.63136 C132.921699,9.23616302 133.362626,9.97055568 133.679413,10.83456 C133.9962,11.6985643 134.154592,12.6835145 134.154592,13.78944 Z M145.356247,10.65312 C145.167887,10.6012797 144.983811,10.5667201 144.804012,10.54944 C144.624214,10.5321599 144.4487,10.52352 144.277463,10.52352 C143.712383,10.52352 143.23721,10.627199 142.851928,10.83456 C142.466646,11.041921 142.158425,11.2924785 141.927256,11.58624 C141.696087,11.8800015 141.529134,12.1996783 141.426392,12.54528 C141.32365,12.8908817 141.27228,13.1932787 141.27228,13.45248 L141.27228,20.088 L137.059887,20.088 L137.059887,7.17984 L141.118168,7.17984 L141.118168,9.04608 L141.169539,9.04608 C141.494888,8.38943672 141.957219,7.85376207 142.556546,7.43904 C143.155874,7.02431793 143.849371,6.81696 144.637058,6.81696 C144.808294,6.81696 144.975247,6.82559991 145.137922,6.84288 C145.300596,6.86016009 145.433302,6.88607983 145.536044,6.92064 L145.356247,10.65312 Z" id="path-1"></path>
    </defs>
    <g id="Page-1" stroke="none" stroke-width="1" fill="none" fill-rule="evenodd">
        <g id="Group">
            <g id="Group-2" transform="translate(0.000000, 1.000000)" fill-rule="nonzero">
                <polygon id="Line" fill="#787878" points="25 7 0 7 0 9 25 9"></polygon>
                <polygon id="Line-Copy-8" fill="#484848" points="25 17 0 17 0 19 25 19"></polygon>
                <polygon id="Line-Copy-14" fill="#D05252" points="11 0 11 16 14 16 14 0"></polygon>
                <polygon id="Line-Copy-15" fill="#D05252" points="3 0 3 16 6 16 6 0"></polygon>
                <polygon id="Line-Copy-16" fill="#D05252" points="7 0 7 16 10 16 10 0"></polygon>
            </g>
            <mask id="mask-2" fill="white">
                <use xlink:href="#path-1"></use>
            </mask>
            <use id="liftlogger" fill="#FFFFFF" xlink:href="#path-1"></use>
        </g>
    </g>
</svg>