<?xml version="1.0" encoding="UTF-8" standalone="no"?>
<svg width="146px" height="30px" viewBox="0 0 146 30" version="1.1" xmlns="http://www.w3.org/2000/svg" xmlns:xlink="http://www.w3.org/1999/xlink">
    <!-- Generator: Sketch 48.2 (47327) - http://www.bohemiancoding.com/sketch -->
    <title>logo-old</title>
    <desc>Created with Sketch.</desc>
    <defs></defs>
    <g id="Page-1" stroke="none" stroke-width="1" fill="none" fill-rule="evenodd">
        <g id="logo-old">
            <g id="Group" transform="translate(0.000000, 7.000000)" fill-rule="nonzero">
                <g id="Group-2">
                    <polygon id="Line" fill="#989898" points="25 7 0 7 0 8 25 8"></polygon>
                    <polygon id="Line-Copy" fill="#7F7F7F" points="25 8 0 8 0 9 25 9"></polygon>
                    <polygon id="Line-Copy-14" fill="#D05252" points="11 0 11 16 14 16 14 0"></polygon>
                    <polygon id="Line-Copy-15" fill="#D05252" points="3 0 3 16 6 16 6 0"></polygon>
                    <polygon id="Line-Copy-16" fill="#D05252" points="7 0 7 16 10 16 10 0"></polygon>
                </g>
            </g>
            <path d="M40.6194483,22.6062176 L40.6194483,21.0064767 L40.5715904,21.0064767 C40.1887249,21.6299686 39.642352,22.1098861 38.9324555,22.4462435 C38.222559,22.782601 37.4688038,22.9507772 36.6711673,22.9507772 C35.7778144,22.9507772 34.9801898,22.7702954 34.2782697,22.4093264 C33.5763496,22.0483574 32.9821193,21.56844 32.495561,20.9695596 C32.0090027,20.3706792 31.6381073,19.6774651 31.3828636,18.8898964 C31.1276199,18.1023277 31,17.2819559 31,16.4287565 C31,15.575557 31.1316081,14.7592871 31.3948281,13.9799223 C31.6580482,13.2005574 32.0329317,12.515547 32.51949,11.9248705 C33.0060483,11.3341939 33.5962904,10.866582 34.2902342,10.5220207 C34.984178,10.1774594 35.7618619,10.0051813 36.6233094,10.0051813 C37.5007095,10.0051813 38.2425004,10.1774594 38.8487041,10.5220207 C39.4549079,10.866582 39.9255064,11.243953 40.2605137,11.6541451 L40.3083717,11.6541451 L40.3083717,4 L44.2327237,4 L44.2327237,22.6062176 L40.6194483,22.6062176 Z M40.4758745,16.4533679 C40.4758745,16.0595835 40.4080764,15.6740088 40.2724782,15.2966321 C40.13688,14.9192555 39.9454501,14.582903 39.6981828,14.2875648 C39.4509154,13.9922265 39.1518062,13.7543187 38.8008462,13.5738342 C38.4498861,13.3933497 38.0510738,13.3031088 37.6043974,13.3031088 C37.1417682,13.3031088 36.7349797,13.3933497 36.3840196,13.5738342 C36.0330595,13.7543187 35.7379384,13.9881246 35.4986475,14.2752591 C35.2593565,14.5623935 35.079891,14.8946441 34.9602455,15.2720207 C34.8406,15.6493974 34.7807782,16.0349721 34.7807782,16.4287565 C34.7807782,16.8225408 34.8406,17.2122174 34.9602455,17.5977979 C35.079891,17.9833784 35.2593565,18.3238327 35.4986475,18.619171 C35.7379384,18.9145092 36.0330595,19.1524171 36.3840196,19.3329016 C36.7349797,19.513386 37.1417682,19.6036269 37.6043974,19.6036269 C38.0510738,19.6036269 38.4498861,19.513386 38.8008462,19.3329016 C39.1518062,19.1524171 39.4509154,18.9145092 39.6981828,18.619171 C39.9454501,18.3238327 40.13688,17.9874803 40.2724782,17.6101036 C40.4080764,17.232727 40.4758745,16.8471522 40.4758745,16.4533679 Z M60.2438674,16.4287565 C60.2438674,17.429625 60.06839,18.3361358 59.71743,19.1483161 C59.3664699,19.9604963 58.8878952,20.6496086 58.2816914,21.2156736 C57.6754877,21.7817386 56.973578,22.2206375 56.1759415,22.5323834 C55.378305,22.8441294 54.5248467,23 53.6155411,23 C52.7221882,23 51.872718,22.8441294 51.0671052,22.5323834 C50.2614923,22.2206375 49.5595827,21.7817386 48.9613553,21.2156736 C48.3631279,20.6496086 47.8885413,19.9604963 47.5375812,19.1483161 C47.1866211,18.3361358 47.0111437,17.429625 47.0111437,16.4287565 C47.0111437,15.4278879 47.1866211,14.525479 47.5375812,13.7215026 C47.8885413,12.9175262 48.3631279,12.2366176 48.9613553,11.6787565 C49.5595827,11.1208953 50.2614923,10.694302 51.0671052,10.3989637 C51.872718,10.1036255 52.7221882,9.95595855 53.6155411,9.95595855 C54.5248467,9.95595855 55.378305,10.1036255 56.1759415,10.3989637 C56.973578,10.694302 57.6754877,11.1208953 58.2816914,11.6787565 C58.8878952,12.2366176 59.3664699,12.9175262 59.71743,13.7215026 C60.06839,14.525479 60.2438674,15.4278879 60.2438674,16.4287565 Z M56.4630892,16.4287565 C56.4630892,16.0349721 56.3992793,15.6493974 56.2716574,15.2720207 C56.1440356,14.8946441 55.9605819,14.5623935 55.721291,14.2752591 C55.482,13.9881246 55.1868789,13.7543187 54.8359189,13.5738342 C54.4849588,13.3933497 54.0781703,13.3031088 53.6155411,13.3031088 C53.1529119,13.3031088 52.7461234,13.3933497 52.3951633,13.5738342 C52.0442033,13.7543187 51.7530703,13.9881246 51.5217557,14.2752591 C51.2904411,14.5623935 51.1149637,14.8946441 50.9953182,15.2720207 C50.8756728,15.6493974 50.8158509,16.0349721 50.8158509,16.4287565 C50.8158509,16.8225408 50.8756728,17.2081156 50.9953182,17.5854922 C51.1149637,17.9628689 51.2944292,18.3033232 51.5337202,18.6068653 C51.7730111,18.9104074 52.0681322,19.1524171 52.4190923,19.3329016 C52.7700524,19.513386 53.1768409,19.6036269 53.6394701,19.6036269 C54.1020993,19.6036269 54.5088878,19.513386 54.8598478,19.3329016 C55.2108079,19.1524171 55.505929,18.9104074 55.74522,18.6068653 C55.9845109,18.3033232 56.1639764,17.9628689 56.2836219,17.5854922 C56.4032674,17.2081156 56.4630892,16.8225408 56.4630892,16.4287565 Z M70.7274177,13.6476684 C70.5519377,13.5984453 70.3804484,13.5656305 70.2129447,13.5492228 C70.0454411,13.5328151 69.881928,13.5246114 69.7224007,13.5246114 C69.1959606,13.5246114 68.753279,13.623056 68.3943426,13.8199482 C68.0354061,14.0168404 67.7482613,14.2547482 67.5328994,14.5336788 C67.3175376,14.8126093 67.1620008,15.1161469 67.0662844,15.4443005 C66.970568,15.7724541 66.9227105,16.0595843 66.9227105,16.3056995 L66.9227105,22.6062176 L62.9983585,22.6062176 L62.9983585,10.3497409 L66.7791367,10.3497409 L66.7791367,12.1217617 L66.8269946,12.1217617 C67.1300965,11.4982698 67.5608138,10.9896393 68.1191593,10.5958549 C68.6775049,10.2020706 69.3235808,10.0051813 70.0574064,10.0051813 C70.2169337,10.0051813 70.3724705,10.0133851 70.5240214,10.0297927 C70.6755724,10.0462004 70.7992042,10.0708116 70.8949206,10.1036269 L70.7274177,13.6476684 Z M84.9438883,16.4287565 C84.9438883,17.429625 84.7684109,18.3361358 84.4174508,19.1483161 C84.0664907,19.9604963 83.587916,20.6496086 82.9817122,21.2156736 C82.3755085,21.7817386 81.6735989,22.2206375 80.8759623,22.5323834 C80.0783258,22.8441294 79.2248675,23 78.3155619,23 C77.422209,23 76.5727389,22.8441294 75.767126,22.5323834 C74.9615131,22.2206375 74.2596035,21.7817386 73.6613761,21.2156736 C73.0631487,20.6496086 72.5885621,19.9604963 72.237602,19.1483161 C71.886642,18.3361358 71.7111645,17.429625 71.7111645,16.4287565 C71.7111645,15.4278879 71.886642,14.525479 72.237602,13.7215026 C72.5885621,12.9175262 73.0631487,12.2366176 73.6613761,11.6787565 C74.2596035,11.1208953 74.9615131,10.694302 75.767126,10.3989637 C76.5727389,10.1036255 77.422209,9.95595855 78.3155619,9.95595855 C79.2248675,9.95595855 80.0783258,10.1036255 80.8759623,10.3989637 C81.6735989,10.694302 82.3755085,11.1208953 82.9817122,11.6787565 C83.587916,12.2366176 84.0664907,12.9175262 84.4174508,13.7215026 C84.7684109,14.525479 84.9438883,15.4278879 84.9438883,16.4287565 Z M81.1631101,16.4287565 C81.1631101,16.0349721 81.0993001,15.6493974 80.9716782,15.2720207 C80.8440564,14.8946441 80.6606028,14.5623935 80.4213118,14.2752591 C80.1820208,13.9881246 79.8868998,13.7543187 79.5359397,13.5738342 C79.1849796,13.3933497 78.7781911,13.3031088 78.3155619,13.3031088 C77.8529327,13.3031088 77.4461442,13.3933497 77.0951841,13.5738342 C76.7442241,13.7543187 76.4530911,13.9881246 76.2217765,14.2752591 C75.9904619,14.5623935 75.8149845,14.8946441 75.695339,15.2720207 C75.5756936,15.6493974 75.5158717,16.0349721 75.5158717,16.4287565 C75.5158717,16.8225408 75.5756936,17.2081156 75.695339,17.5854922 C75.8149845,17.9628689 75.9944501,18.3033232 76.233741,18.6068653 C76.473032,18.9104074 76.768153,19.1524171 77.1191131,19.3329016 C77.4700732,19.513386 77.8768617,19.6036269 78.3394909,19.6036269 C78.8021201,19.6036269 79.2089086,19.513386 79.5598687,19.3329016 C79.9108287,19.1524171 80.2059498,18.9104074 80.4452408,18.6068653 C80.6845317,18.3033232 80.8639973,17.9628689 80.9836427,17.5854922 C81.1032882,17.2081156 81.1631101,16.8225408 81.1631101,16.4287565 Z M95.5470834,22.6062176 L95.5470834,20.9080311 L95.4992255,20.9080311 C95.3556509,21.1869617 95.1682091,21.4494806 94.9368945,21.6955959 C94.7055799,21.9417111 94.4343876,22.1550077 94.1233094,22.3354922 C93.8122311,22.5159767 93.4692526,22.6636436 93.0943634,22.7784974 C92.7194742,22.8933512 92.3246501,22.9507772 91.9098791,22.9507772 C91.1122426,22.9507772 90.4382498,22.8031103 89.8878806,22.507772 C89.3375114,22.2124338 88.8908417,21.8309609 88.547858,21.363342 C88.2048742,20.8957231 87.9576106,20.3624814 87.8060597,19.763601 C87.6545088,19.1647207 87.5787344,18.5535437 87.5787344,17.9300518 L87.5787344,10.3497409 L91.5270155,10.3497409 L91.5270155,16.9948187 C91.5270155,17.33938 91.5509442,17.6675287 91.5988024,17.9792746 C91.6466606,18.2910206 91.7383874,18.569947 91.8739856,18.8160622 C92.0095838,19.0621774 92.1890493,19.2549648 92.4123876,19.3944301 C92.6357258,19.5338953 92.9308469,19.6036269 93.2977597,19.6036269 C93.9837271,19.6036269 94.5061712,19.341108 94.8651076,18.8160622 C95.224044,18.2910164 95.4035096,17.6757376 95.4035096,16.9702073 L95.4035096,10.3497409 L99.3278616,10.3497409 L99.3278616,22.6062176 L95.5470834,22.6062176 Z M106.916006,13.376943 L106.916006,18.0531088 C106.916006,18.6273777 107.023685,19.0580728 107.239047,19.3452073 C107.454409,19.6323417 107.841257,19.7759067 108.399602,19.7759067 C108.591035,19.7759067 108.794429,19.7594993 109.009791,19.7266839 C109.225153,19.6938686 109.404619,19.6446463 109.548193,19.5790155 L109.596051,22.5323834 C109.324855,22.6308295 108.981876,22.7169685 108.567105,22.7908031 C108.152334,22.8646377 107.737569,22.9015544 107.322798,22.9015544 C106.525162,22.9015544 105.855157,22.7990079 105.312764,22.5939119 C104.770372,22.3888159 104.335666,22.0934821 104.008635,21.7079016 C103.681604,21.322321 103.446305,20.8629129 103.30273,20.3296632 C103.159156,19.7964136 103.08737,19.201644 103.08737,18.5453368 L103.08737,13.376943 L101.173052,13.376943 L101.173052,10.3497409 L103.063441,10.3497409 L103.063441,7.12564767 L106.916006,7.12564767 L106.916006,10.3497409 L109.715696,10.3497409 L109.715696,13.376943 L106.916006,13.376943 Z M116.083462,6.4365285 C116.083462,6.74827444 116.023641,7.03950642 115.903995,7.31023316 C115.78435,7.5809599 115.624825,7.81476585 115.425416,8.01165803 C115.226006,8.20855021 114.986719,8.36442084 114.707546,8.47927461 C114.428374,8.59412838 114.137241,8.6515544 113.834139,8.6515544 C113.196029,8.6515544 112.661621,8.43415589 112.230897,7.99935233 C111.800174,7.56454878 111.584815,7.04361271 111.584815,6.4365285 C111.584815,6.14119023 111.640649,5.85816198 111.752318,5.58743523 C111.863987,5.31670849 112.023512,5.08290254 112.230897,4.88601036 C112.438283,4.68911819 112.67757,4.52914569 112.948767,4.40608808 C113.219963,4.28303047 113.515084,4.22150259 113.834139,4.22150259 C114.137241,4.22150259 114.428374,4.27892861 114.707546,4.39378238 C114.986719,4.50863615 115.226006,4.66450679 115.425416,4.86139896 C115.624825,5.05829114 115.78435,5.29209709 115.903995,5.56282383 C116.023641,5.83355058 116.083462,6.12478255 116.083462,6.4365285 Z M111.871963,22.6062176 L111.871963,10.3497409 L115.796315,10.3497409 L115.796315,22.6062176 L111.871963,22.6062176 Z M126.997734,22.6062176 L126.997734,15.9119171 C126.997734,15.5673558 126.969817,15.2392071 126.913983,14.9274611 C126.858148,14.6157152 126.766421,14.3408907 126.6388,14.1029793 C126.511178,13.8650679 126.331712,13.6763824 126.100398,13.5369171 C125.869083,13.3974518 125.57795,13.3277202 125.22699,13.3277202 C124.87603,13.3277202 124.568945,13.3974518 124.305724,13.5369171 C124.042504,13.6763824 123.823158,13.8691698 123.647678,14.115285 C123.472198,14.3614002 123.34059,14.6444285 123.25285,14.9643782 C123.16511,15.284328 123.12124,15.6165786 123.12124,15.9611399 L123.12124,22.6062176 L119.172959,22.6062176 L119.172959,10.3497409 L122.977666,10.3497409 L122.977666,12.0479275 L123.025524,12.0479275 C123.169099,11.7854046 123.356541,11.5269875 123.587855,11.2726684 C123.81917,11.0183493 124.090362,10.8009508 124.40144,10.6204663 C124.712519,10.4399818 125.051509,10.2923149 125.418422,10.1774611 C125.785335,10.0626074 126.176171,10.0051813 126.590942,10.0051813 C127.388578,10.0051813 128.066559,10.1528483 128.624905,10.4481865 C129.18325,10.7435248 129.633908,11.1249977 129.976892,11.5926166 C130.319875,12.0602355 130.567139,12.597579 130.71869,13.2046632 C130.870241,13.8117474 130.946015,14.4188225 130.946015,15.0259067 L130.946015,22.6062176 L126.997734,22.6062176 Z M142.386725,15.0751295 C142.386725,14.43523 142.191307,13.8855809 141.800465,13.4261658 C141.409623,12.9667507 140.823369,12.7370466 140.041685,12.7370466 C139.658819,12.7370466 139.307865,12.7985745 138.98881,12.9216321 C138.669755,13.0446897 138.390587,13.2128659 138.151296,13.4261658 C137.912005,13.6394657 137.720575,13.889679 137.577,14.1768135 C137.433426,14.4639479 137.353663,14.7633836 137.337711,15.0751295 L142.386725,15.0751295 Z M146,16.6256477 L146,17.1178756 C146,17.2819525 145.992024,17.4378231 145.976071,17.5854922 L137.337711,17.5854922 C137.369616,17.9300535 137.469319,18.2417948 137.636823,18.5207254 C137.804327,18.799656 138.019685,19.0416656 138.282905,19.2467617 C138.546125,19.4518577 138.841246,19.6118302 139.168277,19.7266839 C139.495308,19.8415377 139.834299,19.8989637 140.185259,19.8989637 C140.807415,19.8989637 141.333848,19.7800098 141.764571,19.5420984 C142.195295,19.3041871 142.54625,18.9965477 142.817446,18.619171 L145.545349,20.3911917 C144.987004,21.2279835 144.249201,21.8719753 143.331919,22.3231865 C142.414637,22.7743978 141.349808,23 140.137401,23 C139.244048,23 138.398566,22.8564349 137.600929,22.5693005 C136.803293,22.2821661 136.105371,21.8637765 135.507144,21.3141192 C134.908917,20.7644618 134.438318,20.0876551 134.095334,19.2836788 C133.752351,18.4797024 133.580861,17.560886 133.580861,16.5272021 C133.580861,15.5263335 133.748363,14.6198227 134.08337,13.8076425 C134.418377,12.9954623 134.873023,12.30635 135.447322,11.740285 C136.02162,11.17422 136.699601,10.7353211 137.481285,10.4235751 C138.262968,10.1118292 139.10845,9.95595855 140.017756,9.95595855 C140.895156,9.95595855 141.700757,10.1077273 142.434583,10.4112694 C143.168408,10.7148115 143.798532,11.1537104 144.324972,11.7279793 C144.851412,12.3022481 145.262188,12.9995641 145.557314,13.8199482 C145.852439,14.6403323 146,15.5755561 146,16.6256477 Z" id="doroutine" fill="#EFEFEF"></path>
        </g>
    </g>
</svg>