<?xml version="1.0" encoding="UTF-8" standalone="no"?>
<svg width="132px" height="19px" viewBox="0 0 132 19" version="1.1" xmlns="http://www.w3.org/2000/svg" xmlns:xlink="http://www.w3.org/1999/xlink">
    <!-- Generator: Sketch 39.1 (31720) - http://www.bohemiancoding.com/sketch -->
    <title>logo-full</title>
    <desc>Created with Sketch.</desc>
    <defs></defs>
    <g id="Page-1" stroke="none" stroke-width="1" fill="none" fill-rule="evenodd">
        <g id="logo-full">
            <g id="Group-2" transform="translate(0.000000, 3.000000)">
                <polygon id="Line" fill="#989898" points="25 7 0 7 0 8 25 8"></polygon>
                <polygon id="Line-Copy" fill="#7F7F7F" points="25 8 0 8 0 9 25 9"></polygon>
                <polygon id="Line-Copy-14" fill="#D05252" points="11 0 11 16 14 16 14 0"></polygon>
                <polygon id="Line-Copy-15" fill="#D05252" points="3 0 3 16 6 16 6 0"></polygon>
                <polygon id="Line-Copy-16" fill="#D05252" points="7 0 7 16 10 16 10 0"></polygon>
            </g>
            <path d="M40.557,16.275 C40.1429979,16.9343366 39.5795036,17.4364983 38.8665,17.7815 C38.1534964,18.1265017 37.4060039,18.299 36.624,18.299 C35.7806625,18.299 35.02167,18.1495015 34.347,17.8505 C33.67233,17.5514985 33.0973357,17.1413359 32.622,16.62 C32.1466643,16.0986641 31.778668,15.4853369 31.518,14.78 C31.257332,14.0746631 31.127,13.3233373 31.127,12.526 C31.127,11.7286627 31.257332,10.9811702 31.518,10.2835 C31.778668,9.58582984 32.1504976,8.97633594 32.6335,8.455 C33.1165024,7.93366406 33.69533,7.52733479 34.37,7.236 C35.04467,6.94466521 35.7883293,6.799 36.601,6.799 C37.4903378,6.799 38.2646634,6.98683146 38.924,7.3625 C39.5833366,7.73816855 40.1046647,8.19433065 40.488,8.731 L40.534,8.731 L40.534,0.612 L42.696,0.612 L42.696,18 L40.603,18 L40.603,16.275 L40.557,16.275 Z M33.381,12.526 C33.381,13.0320025 33.4576659,13.5226643 33.611,13.998 C33.7643341,14.4733357 33.9943318,14.8949982 34.301,15.263 C34.6076682,15.6310018 34.9833311,15.9261656 35.428,16.1485 C35.8726689,16.3708344 36.393997,16.482 36.992,16.482 C37.5440028,16.482 38.0461644,16.3746677 38.4985,16.16 C38.9508356,15.9453323 39.3379984,15.6578351 39.66,15.2975 C39.9820016,14.9371649 40.2311658,14.5193357 40.4075,14.044 C40.5838342,13.5686643 40.672,13.0703359 40.672,12.549 C40.672,12.0276641 40.5838342,11.5293357 40.4075,11.054 C40.2311658,10.5786643 39.9820016,10.1570018 39.66,9.789 C39.3379984,9.42099816 38.9508356,9.12966774 38.4985,8.915 C38.0461644,8.70033226 37.5440028,8.593 36.992,8.593 C36.393997,8.593 35.8726689,8.70033226 35.428,8.915 C34.9833311,9.12966774 34.6076682,9.42099816 34.301,9.789 C33.9943318,10.1570018 33.7643341,10.5786643 33.611,11.054 C33.4576659,11.5293357 33.381,12.0199975 33.381,12.526 L33.381,12.526 Z M57.358,12.526 C57.358,13.3693376 57.2085015,14.1436631 56.9095,14.849 C56.6104985,15.5543369 56.1965026,16.1638308 55.6675,16.6775 C55.1384973,17.1911692 54.5136703,17.5898319 53.793,17.8735 C53.0723297,18.1571681 52.2980041,18.299 51.47,18.299 C50.6419959,18.299 49.8676703,18.1571681 49.147,17.8735 C48.4263297,17.5898319 47.8053359,17.1911692 47.284,16.6775 C46.7626641,16.1638308 46.3525015,15.5543369 46.0535,14.849 C45.7544985,14.1436631 45.605,13.3693376 45.605,12.526 C45.605,11.6826625 45.7544985,10.9121702 46.0535,10.2145 C46.3525015,9.51682985 46.7626641,8.91500253 47.284,8.409 C47.8053359,7.90299747 48.4263297,7.50816808 49.147,7.2245 C49.8676703,6.94083192 50.6419959,6.799 51.47,6.799 C52.2980041,6.799 53.0723297,6.94083192 53.793,7.2245 C54.5136703,7.50816808 55.1384973,7.90299747 55.6675,8.409 C56.1965026,8.91500253 56.6104985,9.51682985 56.9095,10.2145 C57.2085015,10.9121702 57.358,11.6826625 57.358,12.526 L57.358,12.526 Z M55.104,12.526 C55.104,12.0046641 55.0235008,11.5063357 54.8625,11.031 C54.7014992,10.5556643 54.4676682,10.1378351 54.161,9.7775 C53.8543318,9.41716487 53.4748356,9.12966774 53.0225,8.915 C52.5701644,8.70033226 52.0526696,8.593 51.47,8.593 C50.8873304,8.593 50.3698356,8.70033226 49.9175,8.915 C49.4651644,9.12966774 49.0856682,9.41716487 48.779,9.7775 C48.4723318,10.1378351 48.2385008,10.5556643 48.0775,11.031 C47.9164992,11.5063357 47.836,12.0046641 47.836,12.526 C47.836,13.0473359 47.9164992,13.5456643 48.0775,14.021 C48.2385008,14.4963357 48.4723318,14.9179982 48.779,15.286 C49.0856682,15.6540018 49.4651644,15.9453323 49.9175,16.16 C50.3698356,16.3746677 50.8873304,16.482 51.47,16.482 C52.0526696,16.482 52.5701644,16.3746677 53.0225,16.16 C53.4748356,15.9453323 53.8543318,15.6540018 54.161,15.286 C54.4676682,14.9179982 54.7014992,14.4963357 54.8625,14.021 C55.0235008,13.5456643 55.104,13.0473359 55.104,12.526 L55.104,12.526 Z M60.198,9.444 C60.198,9.15266521 60.1903334,8.7770023 60.175,8.317 C60.1596666,7.8569977 60.1366668,7.45066843 60.106,7.098 L62.153,7.098 C62.1836668,7.37400138 62.2066666,7.69216487 62.222,8.0525 C62.2373334,8.41283514 62.245,8.70799885 62.245,8.938 L62.314,8.938 C62.6206682,8.29399678 63.0691637,7.77650196 63.6595,7.3855 C64.2498363,6.99449805 64.9129963,6.799 65.649,6.799 C65.986335,6.799 66.2699988,6.82966636 66.5,6.891 L66.408,8.892 C66.1013318,8.81533295 65.7716684,8.777 65.419,8.777 C64.897664,8.777 64.4453352,8.87283238 64.062,9.0645 C63.6786647,9.25616762 63.3605013,9.51299839 63.1075,9.835 C62.8544987,10.1570016 62.6666673,10.5288312 62.544,10.9505 C62.4213327,11.3721688 62.36,11.8129977 62.36,12.273 L62.36,18 L60.198,18 L60.198,9.444 Z M79,12.526 C79,13.3693376 78.8505015,14.1436631 78.5515,14.849 C78.2524985,15.5543369 77.8385026,16.1638308 77.3095,16.6775 C76.7804973,17.1911692 76.1556703,17.5898319 75.435,17.8735 C74.7143297,18.1571681 73.9400041,18.299 73.112,18.299 C72.2839958,18.299 71.5096703,18.1571681 70.789,17.8735 C70.0683297,17.5898319 69.4473359,17.1911692 68.926,16.6775 C68.404664,16.1638308 67.9945015,15.5543369 67.6955,14.849 C67.3964985,14.1436631 67.247,13.3693376 67.247,12.526 C67.247,11.6826625 67.3964985,10.9121702 67.6955,10.2145 C67.9945015,9.51682985 68.404664,8.91500253 68.926,8.409 C69.4473359,7.90299747 70.0683297,7.50816808 70.789,7.2245 C71.5096703,6.94083192 72.2839958,6.799 73.112,6.799 C73.9400041,6.799 74.7143297,6.94083192 75.435,7.2245 C76.1556703,7.50816808 76.7804973,7.90299747 77.3095,8.409 C77.8385026,8.91500253 78.2524985,9.51682985 78.5515,10.2145 C78.8505015,10.9121702 79,11.6826625 79,12.526 L79,12.526 Z M76.746,12.526 C76.746,12.0046641 76.6655008,11.5063357 76.5045,11.031 C76.3434992,10.5556643 76.1096682,10.1378351 75.803,9.7775 C75.4963318,9.41716487 75.1168356,9.12966774 74.6645,8.915 C74.2121644,8.70033226 73.6946696,8.593 73.112,8.593 C72.5293304,8.593 72.0118356,8.70033226 71.5595,8.915 C71.1071644,9.12966774 70.7276682,9.41716487 70.421,9.7775 C70.1143318,10.1378351 69.8805008,10.5556643 69.7195,11.031 C69.5584992,11.5063357 69.478,12.0046641 69.478,12.526 C69.478,13.0473359 69.5584992,13.5456643 69.7195,14.021 C69.8805008,14.4963357 70.1143318,14.9179982 70.421,15.286 C70.7276682,15.6540018 71.1071644,15.9453323 71.5595,16.16 C72.0118356,16.3746677 72.5293304,16.482 73.112,16.482 C73.6946696,16.482 74.2121644,16.3746677 74.6645,16.16 C75.1168356,15.9453323 75.4963318,15.6540018 75.803,15.286 C76.1096682,14.9179982 76.3434992,14.4963357 76.5045,14.021 C76.6655008,13.5456643 76.746,13.0473359 76.746,12.526 L76.746,12.526 Z M89.522,18 C89.4913332,17.7239986 89.4683334,17.4135017 89.453,17.0685 C89.4376666,16.7234983 89.43,16.4360011 89.43,16.206 L89.384,16.206 C89.1079986,16.7886696 88.6441699,17.2831646 87.9925,17.6895 C87.3408301,18.0958354 86.6163373,18.299 85.819,18.299 C85.1136631,18.299 84.5041692,18.1840012 83.9905,17.954 C83.4768307,17.7239989 83.0551683,17.4058354 82.7255,16.9995 C82.3958317,16.5931646 82.1505008,16.1216694 81.9895,15.585 C81.8284992,15.0483307 81.748,14.4733364 81.748,13.86 L81.748,7.098 L83.91,7.098 L83.91,13.124 C83.91,13.5686689 83.9444996,13.9941646 84.0135,14.4005 C84.0825003,14.8068354 84.2089991,15.1633318 84.393,15.47 C84.5770009,15.7766682 84.8299984,16.0219991 85.152,16.206 C85.4740016,16.3900009 85.8879974,16.482 86.394,16.482 C87.2680043,16.482 87.9733306,16.1561699 88.51,15.5045 C89.0466693,14.8528301 89.315,13.9826721 89.315,12.894 L89.315,7.098 L91.477,7.098 L91.477,15.654 C91.477,15.9453348 91.4846666,16.3209977 91.5,16.781 C91.5153334,17.2410023 91.5383332,17.6473316 91.569,18 L89.522,18 Z M100.412,8.869 L97.514,8.869 L97.514,14.55 C97.514,15.2093366 97.6366654,15.6808319 97.882,15.9645 C98.1273345,16.2481681 98.5183306,16.39 99.055,16.39 C99.2543343,16.39 99.4689988,16.3670002 99.699,16.321 C99.9290011,16.2749998 100.135999,16.2060005 100.32,16.114 L100.389,17.885 C100.128332,17.9770005 99.8408349,18.0498331 99.5265,18.1035 C99.2121651,18.1571669 98.886335,18.184 98.549,18.184 C97.5216615,18.184 96.735836,17.9003362 96.1915,17.333 C95.6471639,16.7656638 95.375,15.9146723 95.375,14.78 L95.375,8.869 L93.282,8.869 L93.282,7.098 L95.375,7.098 L95.375,3.97 L97.514,3.97 L97.514,7.098 L100.412,7.098 L100.412,8.869 Z M104.678,18 L102.516,18 L102.516,7.098 L104.678,7.098 L104.678,18 Z M105.046,3.165 C105.046,3.56366866 104.904168,3.89333203 104.6205,4.154 C104.336832,4.41466797 103.995669,4.545 103.597,4.545 C103.198331,4.545 102.861001,4.41083468 102.585,4.1425 C102.308999,3.87416532 102.171,3.54833525 102.171,3.165 C102.171,2.76633134 102.308999,2.43283467 102.585,2.1645 C102.861001,1.89616532 103.198331,1.762 103.597,1.762 C103.995669,1.762 104.336832,1.89616532 104.6205,2.1645 C104.904168,2.43283467 105.046,2.76633134 105.046,3.165 L105.046,3.165 Z M110.255,7.098 C110.285667,7.37400138 110.308667,7.68449827 110.324,8.0295 C110.339333,8.37450172 110.347,8.66199885 110.347,8.892 L110.416,8.892 C110.554001,8.60066521 110.741832,8.32850126 110.9795,8.0755 C111.217168,7.82249873 111.489332,7.60016762 111.796,7.4085 C112.102668,7.21683238 112.439998,7.06733387 112.808,6.96 C113.176002,6.85266613 113.559331,6.799 113.958,6.799 C114.663337,6.799 115.268997,6.91783214 115.775,7.1555 C116.281002,7.39316786 116.702665,7.71133134 117.04,8.11 C117.377335,8.50866866 117.626499,8.97633065 117.7875,9.513 C117.948501,10.0496693 118.029,10.6246636 118.029,11.238 L118.029,18 L115.867,18 L115.867,11.951 C115.867,11.5063311 115.8325,11.0846687 115.7635,10.686 C115.6945,10.2873313 115.568001,9.9346682 115.384,9.628 C115.199999,9.3213318 114.947002,9.07600092 114.625,8.892 C114.302998,8.70799908 113.889002,8.616 113.383,8.616 C112.524329,8.616 111.822836,8.94183007 111.2785,9.5935 C110.734164,10.2451699 110.462,11.1153279 110.462,12.204 L110.462,18 L108.3,18 L108.3,9.444 C108.3,9.15266521 108.292333,8.7770023 108.277,8.317 C108.261667,7.8569977 108.238667,7.45066843 108.208,7.098 L110.255,7.098 Z M129.517,11.583 C129.501667,11.1536645 129.428834,10.7511685 129.2985,10.3755 C129.168166,9.99983145 128.976501,9.67400138 128.7235,9.398 C128.470499,9.12199862 128.156168,8.90350081 127.7805,8.7425 C127.404831,8.58149919 126.964002,8.501 126.458,8.501 C125.997998,8.501 125.564835,8.58149919 125.1585,8.7425 C124.752165,8.90350081 124.399501,9.12199862 124.1005,9.398 C123.801498,9.67400138 123.556168,9.99983145 123.3645,10.3755 C123.172832,10.7511685 123.061667,11.1536645 123.031,11.583 L129.517,11.583 Z M131.702,12.457 L131.702,12.825 C131.702,12.9476673 131.694333,13.0703327 131.679,13.193 L123.031,13.193 C123.046333,13.6530023 123.149832,14.0861646 123.3415,14.4925 C123.533168,14.8988354 123.789998,15.2514985 124.112,15.5505 C124.434002,15.8495015 124.805831,16.0833325 125.2275,16.252 C125.649169,16.4206675 126.097664,16.505 126.573,16.505 C127.309004,16.505 127.945331,16.3440016 128.482,16.022 C129.018669,15.6999984 129.440332,15.3090023 129.747,14.849 L131.265,16.068 C130.68233,16.8346705 129.996171,17.3981649 129.2065,17.7585 C128.416829,18.1188351 127.539005,18.299 126.573,18.299 C125.744996,18.299 124.978337,18.1610014 124.273,17.885 C123.567663,17.6089986 122.962002,17.2218358 122.456,16.7235 C121.949997,16.2251642 121.551335,15.6233369 121.26,14.918 C120.968665,14.2126631 120.823,13.430671 120.823,12.572 C120.823,11.7286625 120.964832,10.9505036 121.2485,10.2375 C121.532168,9.52449643 121.926997,8.91500253 122.433,8.409 C122.939002,7.90299747 123.536997,7.50816808 124.227,7.2245 C124.917003,6.94083192 125.660663,6.799 126.458,6.799 C127.255337,6.799 127.97983,6.92933203 128.6315,7.19 C129.28317,7.45066797 129.835164,7.82633088 130.2875,8.317 C130.739836,8.80766912 131.088665,9.40182985 131.334,10.0995 C131.579335,10.7971702 131.702,11.5829956 131.702,12.457 L131.702,12.457 Z" id="doroutine" fill="#7F7F7F"></path>
        </g>
    </g>
</svg>