<?xml version="1.0" encoding="UTF-8"?>
<svg width="125px" height="17px" viewBox="0 0 125 17" version="1.1" xmlns="http://www.w3.org/2000/svg" xmlns:xlink="http://www.w3.org/1999/xlink">
    <!-- Generator: Sketch 39.1 (31720) - http://www.bohemiancoding.com/sketch -->
    <title>logo-full</title>
    <desc>Created with Sketch.</desc>
    <defs></defs>
    <g id="Page-1" stroke="none" stroke-width="1" fill="none" fill-rule="evenodd">
        <g id="logo-full">
            <g id="Group-2" transform="translate(0.000000, 3.000000)">
                <polygon id="Line" fill="#989898" points="24 6 0 6 0 7 24 7"></polygon>
                <polygon id="Line-Copy" fill="#7F7F7F" points="24 7 0 7 0 8 24 8"></polygon>
                <polygon id="Line-Copy-14" fill="#D05252" points="11 0 11 14 14 14 14 0"></polygon>
                <polygon id="Line-Copy-15" fill="#D05252" points="3 0 3 14 6 14 6 0"></polygon>
                <polygon id="Line-Copy-16" fill="#D05252" points="7 0 7 14 10 14 10 0"></polygon>
            </g>
            <path d="M43.18,14.5 C42.8199982,15.0733362 42.3300031,15.5099985 41.71,15.81 C41.0899969,16.1100015 40.4400034,16.26 39.76,16.26 C39.026663,16.26 38.3666696,16.1300013 37.78,15.87 C37.1933304,15.6099987 36.6933354,15.2533356 36.28,14.8 C35.8666646,14.3466644 35.5466678,13.8133364 35.32,13.2 C35.0933322,12.5866636 34.98,11.9333368 34.98,11.24 C34.98,10.5466632 35.0933322,9.8966697 35.32,9.29 C35.5466678,8.6833303 35.8699979,8.1533356 36.29,7.7 C36.7100021,7.2466644 37.2133304,6.8933346 37.8,6.64 C38.3866696,6.3866654 39.0333298,6.26 39.74,6.26 C40.5133372,6.26 41.1866638,6.4233317 41.76,6.75 C42.3333362,7.0766683 42.786665,7.473331 43.12,7.94 L43.16,7.94 L43.16,0.88 L45.04,0.88 L45.04,16 L43.22,16 L43.22,14.5 L43.18,14.5 Z M36.94,11.24 C36.94,11.6800022 37.006666,12.1066646 37.14,12.52 C37.273334,12.9333354 37.473332,13.2999984 37.74,13.62 C38.006668,13.9400016 38.3333314,14.1966657 38.72,14.39 C39.1066686,14.5833343 39.5599974,14.68 40.08,14.68 C40.5600024,14.68 40.9966647,14.5866676 41.39,14.4 C41.7833353,14.2133324 42.1199986,13.9633349 42.4,13.65 C42.6800014,13.3366651 42.8966659,12.9733354 43.05,12.56 C43.2033341,12.1466646 43.28,11.7133356 43.28,11.26 C43.28,10.8066644 43.2033341,10.3733354 43.05,9.96 C42.8966659,9.5466646 42.6800014,9.1800016 42.4,8.86 C42.1199986,8.5399984 41.7833353,8.2866676 41.39,8.1 C40.9966647,7.9133324 40.5600024,7.82 40.08,7.82 C39.5599974,7.82 39.1066686,7.9133324 38.72,8.1 C38.3333314,8.2866676 38.006668,8.5399984 37.74,8.86 C37.473332,9.1800016 37.273334,9.5466646 37.14,9.96 C37.006666,10.3733354 36.94,10.7999978 36.94,11.24 L36.94,11.24 Z M57.7895652,11.24 C57.7895652,11.973337 57.6595665,12.6466636 57.3995652,13.26 C57.1395639,13.8733364 56.7795675,14.4033311 56.3195652,14.85 C55.8595629,15.2966689 55.316235,15.6433321 54.6895652,15.89 C54.0628954,16.1366679 53.3895688,16.26 52.6695652,16.26 C51.9495616,16.26 51.276235,16.1366679 50.6495652,15.89 C50.0228954,15.6433321 49.4829008,15.2966689 49.0295652,14.85 C48.5762296,14.4033311 48.2195665,13.8733364 47.9595652,13.26 C47.6995639,12.6466636 47.5695652,11.973337 47.5695652,11.24 C47.5695652,10.506663 47.6995639,9.8366697 47.9595652,9.23 C48.2195665,8.6233303 48.5762296,8.1000022 49.0295652,7.66 C49.4829008,7.2199978 50.0228954,6.8766679 50.6495652,6.63 C51.276235,6.3833321 51.9495616,6.26 52.6695652,6.26 C53.3895688,6.26 54.0628954,6.3833321 54.6895652,6.63 C55.316235,6.8766679 55.8595629,7.2199978 56.3195652,7.66 C56.7795675,8.1000022 57.1395639,8.6233303 57.3995652,9.23 C57.6595665,9.8366697 57.7895652,10.506663 57.7895652,11.24 L57.7895652,11.24 Z M55.8295652,11.24 C55.8295652,10.7866644 55.7595659,10.3533354 55.6195652,9.94 C55.4795645,9.5266646 55.2762332,9.1633349 55.0095652,8.85 C54.7428972,8.5366651 54.4129005,8.2866676 54.0195652,8.1 C53.6262299,7.9133324 53.1762344,7.82 52.6695652,7.82 C52.162896,7.82 51.7129005,7.9133324 51.3195652,8.1 C50.9262299,8.2866676 50.5962332,8.5366651 50.3295652,8.85 C50.0628972,9.1633349 49.8595659,9.5266646 49.7195652,9.94 C49.5795645,10.3533354 49.5095652,10.7866644 49.5095652,11.24 C49.5095652,11.6933356 49.5795645,12.1266646 49.7195652,12.54 C49.8595659,12.9533354 50.0628972,13.3199984 50.3295652,13.64 C50.5962332,13.9600016 50.9262299,14.2133324 51.3195652,14.4 C51.7129005,14.5866676 52.162896,14.68 52.6695652,14.68 C53.1762344,14.68 53.6262299,14.5866676 54.0195652,14.4 C54.4129005,14.2133324 54.7428972,13.9600016 55.0095652,13.64 C55.2762332,13.3199984 55.4795645,12.9533354 55.6195652,12.54 C55.7595659,12.1266646 55.8295652,11.6933356 55.8295652,11.24 L55.8295652,11.24 Z M60.2591304,8.56 C60.2591304,8.3066654 60.2524638,7.980002 60.2391304,7.58 C60.225797,7.179998 60.2057972,6.8266682 60.1791304,6.52 L61.9591304,6.52 C61.9857972,6.7600012 62.005797,7.0366651 62.0191304,7.35 C62.0324638,7.6633349 62.0391304,7.919999 62.0391304,8.12 L62.0991304,8.12 C62.3657984,7.5599972 62.7557945,7.1100017 63.2691304,6.77 C63.7824663,6.4299983 64.3591272,6.26 64.9991304,6.26 C65.2924652,6.26 65.5391294,6.2866664 65.7391304,6.34 L65.6591304,8.08 C65.3924624,8.013333 65.1057986,7.98 64.7991304,7.98 C64.3457948,7.98 63.9524654,8.0633325 63.6191304,8.23 C63.2857954,8.3966675 63.0091315,8.6199986 62.7891304,8.9 C62.5691293,9.1800014 62.4057976,9.5033315 62.2991304,9.87 C62.1924632,10.2366685 62.1391304,10.619998 62.1391304,11.02 L62.1391304,16 L60.2591304,16 L60.2591304,8.56 Z M76.6086957,11.24 C76.6086957,11.973337 76.478697,12.6466636 76.2186957,13.26 C75.9586944,13.8733364 75.598698,14.4033311 75.1386957,14.85 C74.6786934,15.2966689 74.1353655,15.6433321 73.5086957,15.89 C72.8820259,16.1366679 72.2086993,16.26 71.4886957,16.26 C70.7686921,16.26 70.0953655,16.1366679 69.4686957,15.89 C68.8420259,15.6433321 68.3020313,15.2966689 67.8486957,14.85 C67.3953601,14.4033311 67.038697,13.8733364 66.7786957,13.26 C66.5186944,12.6466636 66.3886957,11.973337 66.3886957,11.24 C66.3886957,10.506663 66.5186944,9.8366697 66.7786957,9.23 C67.038697,8.6233303 67.3953601,8.1000022 67.8486957,7.66 C68.3020313,7.2199978 68.8420259,6.8766679 69.4686957,6.63 C70.0953655,6.3833321 70.7686921,6.26 71.4886957,6.26 C72.2086993,6.26 72.8820259,6.3833321 73.5086957,6.63 C74.1353655,6.8766679 74.6786934,7.2199978 75.1386957,7.66 C75.598698,8.1000022 75.9586944,8.6233303 76.2186957,9.23 C76.478697,9.8366697 76.6086957,10.506663 76.6086957,11.24 L76.6086957,11.24 Z M74.6486957,11.24 C74.6486957,10.7866644 74.5786964,10.3533354 74.4386957,9.94 C74.298695,9.5266646 74.0953637,9.1633349 73.8286957,8.85 C73.5620277,8.5366651 73.232031,8.2866676 72.8386957,8.1 C72.4453604,7.9133324 71.9953649,7.82 71.4886957,7.82 C70.9820265,7.82 70.532031,7.9133324 70.1386957,8.1 C69.7453604,8.2866676 69.4153637,8.5366651 69.1486957,8.85 C68.8820277,9.1633349 68.6786964,9.5266646 68.5386957,9.94 C68.398695,10.3533354 68.3286957,10.7866644 68.3286957,11.24 C68.3286957,11.6933356 68.398695,12.1266646 68.5386957,12.54 C68.6786964,12.9533354 68.8820277,13.3199984 69.1486957,13.64 C69.4153637,13.9600016 69.7453604,14.2133324 70.1386957,14.4 C70.532031,14.5866676 70.9820265,14.68 71.4886957,14.68 C71.9953649,14.68 72.4453604,14.5866676 72.8386957,14.4 C73.232031,14.2133324 73.5620277,13.9600016 73.8286957,13.64 C74.0953637,13.3199984 74.298695,12.9533354 74.4386957,12.54 C74.5786964,12.1266646 74.6486957,11.6933356 74.6486957,11.24 L74.6486957,11.24 Z M85.7582609,16 C85.7315941,15.7599988 85.7115943,15.4900015 85.6982609,15.19 C85.6849275,14.8899985 85.6782609,14.640001 85.6782609,14.44 L85.6382609,14.44 C85.3982597,14.9466692 84.9949304,15.3766649 84.4282609,15.73 C83.8615914,16.0833351 83.2315977,16.26 82.5382609,16.26 C81.9249245,16.26 81.3949298,16.160001 80.9482609,15.96 C80.501592,15.759999 80.134929,15.4833351 79.8482609,15.13 C79.5615928,14.7766649 79.3482616,14.366669 79.2082609,13.9 C79.0682602,13.433331 78.9982609,12.933336 78.9982609,12.4 L78.9982609,6.52 L80.8782609,6.52 L80.8782609,11.76 C80.8782609,12.1466686 80.9082606,12.5166649 80.9682609,12.87 C81.0282612,13.2233351 81.1382601,13.533332 81.2982609,13.8 C81.4582617,14.066668 81.6782595,14.2799992 81.9582609,14.44 C82.2382623,14.6000008 82.5982587,14.68 83.0382609,14.68 C83.7982647,14.68 84.4115919,14.3966695 84.8782609,13.83 C85.3449299,13.2633305 85.5782609,12.5066714 85.5782609,11.56 L85.5782609,6.52 L87.4582609,6.52 L87.4582609,13.96 C87.4582609,14.2133346 87.4649275,14.539998 87.4782609,14.94 C87.4915943,15.340002 87.5115941,15.6933318 87.5382609,16 L85.7582609,16 Z M95.2278261,8.06 L92.7078261,8.06 L92.7078261,13 C92.7078261,13.5733362 92.8144917,13.9833321 93.0278261,14.23 C93.2411605,14.4766679 93.5811571,14.6 94.0478261,14.6 C94.2211603,14.6 94.4078251,14.5800002 94.6078261,14.54 C94.8078271,14.4999998 94.9878253,14.4400004 95.1478261,14.36 L95.2078261,15.9 C94.9811583,15.9800004 94.7311608,16.0433331 94.4578261,16.09 C94.1844914,16.1366669 93.9011609,16.16 93.6078261,16.16 C92.7144883,16.16 92.0311618,15.9133358 91.5578261,15.42 C91.0844904,14.9266642 90.8478261,14.1866716 90.8478261,13.2 L90.8478261,8.06 L89.0278261,8.06 L89.0278261,6.52 L90.8478261,6.52 L90.8478261,3.8 L92.7078261,3.8 L92.7078261,6.52 L95.2278261,6.52 L95.2278261,8.06 Z M98.9373913,16 L97.0573913,16 L97.0573913,6.52 L98.9373913,6.52 L98.9373913,16 Z M99.2573913,3.1 C99.2573913,3.4466684 99.1340592,3.7333322 98.8873913,3.96 C98.6407234,4.1866678 98.3440597,4.3 97.9973913,4.3 C97.6507229,4.3 97.3573925,4.1833345 97.1173913,3.95 C96.8773901,3.7166655 96.7573913,3.433335 96.7573913,3.1 C96.7573913,2.7533316 96.8773901,2.4633345 97.1173913,2.23 C97.3573925,1.9966655 97.6507229,1.88 97.9973913,1.88 C98.3440597,1.88 98.6407234,1.9966655 98.8873913,2.23 C99.1340592,2.4633345 99.2573913,2.7533316 99.2573913,3.1 L99.2573913,3.1 Z M103.786957,6.52 C103.813623,6.7600012 103.833623,7.0299985 103.846957,7.33 C103.86029,7.6300015 103.866957,7.879999 103.866957,8.08 L103.926957,8.08 C104.046957,7.8266654 104.210289,7.5900011 104.416957,7.37 C104.623624,7.1499989 104.860289,6.9566675 105.126957,6.79 C105.393625,6.6233325 105.686955,6.4933338 106.006957,6.4 C106.326958,6.3066662 106.660288,6.26 107.006957,6.26 C107.620293,6.26 108.146954,6.3633323 108.586957,6.57 C109.026959,6.7766677 109.393622,7.0533316 109.686957,7.4 C109.980291,7.7466684 110.196956,8.153331 110.336957,8.62 C110.476957,9.086669 110.546957,9.586664 110.546957,10.12 L110.546957,16 L108.666957,16 L108.666957,10.74 C108.666957,10.3533314 108.636957,9.9866684 108.576957,9.64 C108.516956,9.2933316 108.406957,8.986668 108.246957,8.72 C108.086956,8.453332 107.866958,8.2400008 107.586957,8.08 C107.306955,7.9199992 106.946959,7.84 106.506957,7.84 C105.760286,7.84 105.150292,8.1233305 104.676957,8.69 C104.203621,9.2566695 103.966957,10.0133286 103.966957,10.96 L103.966957,16 L102.086957,16 L102.086957,8.56 C102.086957,8.3066654 102.08029,7.980002 102.066957,7.58 C102.053623,7.179998 102.033623,6.8266682 102.006957,6.52 L103.786957,6.52 Z M120.536522,10.42 C120.523188,10.0466648 120.459856,9.6966683 120.346522,9.37 C120.233188,9.0433317 120.066523,8.7600012 119.846522,8.52 C119.626521,8.2799988 119.35319,8.0900007 119.026522,7.95 C118.699853,7.8099993 118.316524,7.74 117.876522,7.74 C117.47652,7.74 117.099857,7.8099993 116.746522,7.95 C116.393187,8.0900007 116.086523,8.2799988 115.826522,8.52 C115.56652,8.7600012 115.353189,9.0433317 115.186522,9.37 C115.019854,9.6966683 114.923189,10.0466648 114.896522,10.42 L120.536522,10.42 Z M122.436522,11.18 L122.436522,11.5 C122.436522,11.6066672 122.429855,11.7133328 122.416522,11.82 L114.896522,11.82 C114.909855,12.220002 114.999854,12.5966649 115.166522,12.95 C115.333189,13.3033351 115.55652,13.6099987 115.836522,13.87 C116.116523,14.1300013 116.439853,14.3333326 116.806522,14.48 C117.17319,14.6266674 117.563186,14.7 117.976522,14.7 C118.616525,14.7 119.169853,14.5600014 119.636522,14.28 C120.103191,13.9999986 120.469854,13.660002 120.736522,13.26 L122.056522,14.32 C121.549853,14.98667 120.953192,15.4766651 120.266522,15.79 C119.579852,16.1033349 118.816526,16.26 117.976522,16.26 C117.256518,16.26 116.589858,16.1400012 115.976522,15.9 C115.363185,15.6599988 114.836524,15.3233355 114.396522,14.89 C113.95652,14.4566645 113.609856,13.9333364 113.356522,13.32 C113.103187,12.7066636 112.976522,12.0266704 112.976522,11.28 C112.976522,10.546663 113.099854,9.8700031 113.346522,9.25 C113.59319,8.6299969 113.93652,8.1000022 114.376522,7.66 C114.816524,7.2199978 115.336519,6.8766679 115.936522,6.63 C116.536525,6.3833321 117.183185,6.26 117.876522,6.26 C118.569859,6.26 119.199852,6.3733322 119.766522,6.6 C120.333191,6.8266678 120.813186,7.1533312 121.206522,7.58 C121.599857,8.0066688 121.903187,8.5233303 122.116522,9.13 C122.329856,9.7366697 122.436522,10.4199962 122.436522,11.18 L122.436522,11.18 Z" id="doroutine" fill="#585F61"></path>
        </g>
    </g>
</svg>