<?xml version="1.0" encoding="UTF-8" standalone="no"?>
<svg width="170px" height="30px" viewBox="0 0 170 30" version="1.1" xmlns="http://www.w3.org/2000/svg" xmlns:xlink="http://www.w3.org/1999/xlink">
    <!-- Generator: Sketch 48.2 (47327) - http://www.bohemiancoding.com/sketch -->
    <title>logo</title>
    <desc>Created with Sketch.</desc>
    <defs></defs>
    <g id="Page-1" stroke="none" stroke-width="1" fill="none" fill-rule="evenodd">
        <g id="logo">
            <g id="Group" transform="translate(0.000000, 7.000000)" fill-rule="nonzero">
                <g id="Group-2">
                    <polygon id="Line" fill="#989898" points="25 7 0 7 0 8 25 8"></polygon>
                    <polygon id="Line-Copy" fill="#7F7F7F" points="25 8 0 8 0 9 25 9"></polygon>
                    <polygon id="Line-Copy-14" fill="#D05252" points="11 0 11 16 14 16 14 0"></polygon>
                    <polygon id="Line-Copy-15" fill="#D05252" points="3 0 3 16 6 16 6 0"></polygon>
                    <polygon id="Line-Copy-16" fill="#D05252" points="7 0 7 16 10 16 10 0"></polygon>
                </g>
            </g>
            <path d="M39.2793619,13.3420708 C38.9603097,13.0432488 38.5854291,12.7916131 38.1547087,12.587156 C37.7239883,12.3826988 37.2693458,12.2804718 36.7907676,12.2804718 C36.4238576,12.2804718 36.0848698,12.3512444 35.7737939,12.4927916 C35.4627181,12.6343388 35.3071825,12.878111 35.3071825,13.2241153 C35.3071825,13.5543922 35.4786704,13.7903007 35.8216515,13.931848 C36.1646326,14.0733952 36.7189774,14.2306675 37.4847025,14.4036697 C37.9313755,14.4980345 38.3820299,14.631716 38.8366792,14.8047182 C39.2913285,14.9777204 39.702102,15.2057653 40.069012,15.4888598 C40.435922,15.7719542 40.7310408,16.1179534 40.9543773,16.5268676 C41.1777138,16.9357819 41.2893804,17.4233261 41.2893804,17.9895151 C41.2893804,18.7287062 41.1378329,19.3538638 40.8347333,19.8650066 C40.5316338,20.3761493 40.1368127,20.7889893 39.6502581,21.1035387 C39.1637036,21.4180881 38.617335,21.646133 38.0111359,21.7876802 C37.4049368,21.9292274 36.7987469,22 36.1925478,22 C35.2194387,22 34.2662847,21.8466595 33.3330572,21.5399738 C32.3998296,21.2332881 31.6221517,20.7811301 31,20.1834862 L33.2014488,17.8951507 C33.5524062,18.27261 33.9831201,18.5871547 34.4936036,18.8387942 C35.004087,19.0904338 35.5464675,19.2162516 36.1207614,19.2162516 C36.4398135,19.2162516 36.7548728,19.1415473 37.0659487,18.9921363 C37.3770245,18.8427253 37.5325601,18.5792942 37.5325601,18.2018349 C37.5325601,17.840103 37.3411317,17.5727401 36.9582691,17.3997379 C36.5754065,17.2267357 35.9771927,17.0458725 35.1636097,16.8571429 C34.7488419,16.762778 34.3340804,16.6369602 33.9193126,16.4796855 C33.5045448,16.3224107 33.1336522,16.1100931 32.8066238,15.8427261 C32.4795953,15.5753591 32.2123931,15.2450872 32.0050092,14.8519004 C31.7976253,14.4587136 31.693935,13.9868966 31.693935,13.4364351 C31.693935,12.728699 31.8454825,12.1271322 32.148582,11.6317169 C32.4516815,11.1363016 32.8425146,10.7313253 33.3210928,10.4167759 C33.799671,10.1022265 34.3300872,9.87024976 34.9123574,9.72083879 C35.4946276,9.57142782 36.0729009,9.49672346 36.6471948,9.49672346 C37.5405408,9.49672346 38.413933,9.63433676 39.2673975,9.9095675 C40.120862,10.1847982 40.8427066,10.5976381 41.4329531,11.1480996 L39.2793619,13.3420708 Z M50.8635558,16.5032765 L50.3610512,16.5032765 C49.9303308,16.5032765 49.4956287,16.5229356 49.056932,16.5622543 C48.6182353,16.6015729 48.2274023,16.6762773 47.8844212,16.7863696 C47.5414402,16.8964619 47.2582856,17.057666 47.0349491,17.2699869 C46.8116126,17.4823077 46.699946,17.7614662 46.699946,18.1074705 C46.699946,18.3276551 46.7517912,18.5163819 46.8554832,18.6736566 C46.9591751,18.8309313 47.0907822,18.9567492 47.2503083,19.051114 C47.4098343,19.1454788 47.5932866,19.2123196 47.8006705,19.2516383 C48.0080544,19.2909569 48.207459,19.310616 48.3988903,19.310616 C49.1965206,19.310616 49.8066987,19.0943665 50.2294428,18.6618611 C50.6521869,18.2293556 50.8635558,17.6435161 50.8635558,16.904325 L50.8635558,16.5032765 Z M43.6609895,11.4783748 C44.3629043,10.8178211 45.1804631,10.3224132 46.1136907,9.9921363 C47.0469182,9.66185942 48.0000722,9.49672346 48.9731812,9.49672346 C49.9781955,9.49672346 50.8276591,9.61860953 51.5215975,9.86238532 C52.215536,10.1061611 52.777857,10.4836147 53.2085774,10.9947575 C53.6392978,11.5059003 53.954357,12.1507169 54.1537646,12.9292267 C54.3531722,13.7077365 54.4528745,14.6317116 54.4528745,15.7011796 L54.4528745,21.6225426 L50.8635558,21.6225426 L50.8635558,20.3722149 L50.7917694,20.3722149 C50.4886699,20.8597665 50.0300393,21.2372202 49.4158639,21.5045872 C48.8016885,21.7719542 48.1356771,21.9056356 47.4178098,21.9056356 C46.9392316,21.9056356 46.4447082,21.8427267 45.9342247,21.7169069 C45.4237413,21.5910872 44.9571345,21.3866331 44.5343904,21.1035387 C44.1116463,20.8204442 43.7646823,20.4429906 43.493488,19.9711664 C43.2222937,19.4993423 43.0866985,18.9174347 43.0866985,18.225426 C43.0866985,17.3761425 43.321996,16.6920078 43.7925979,16.1730013 C44.2631998,15.6539948 44.8693898,15.2529503 45.611186,14.9698558 C46.3529823,14.6867614 47.1785173,14.4980345 48.087816,14.4036697 C48.9971146,14.3093049 49.882471,14.2621232 50.7439118,14.2621232 L50.7439118,14.0733945 C50.7439118,13.4914781 50.536531,13.0629109 50.1217632,12.7876802 C49.7069954,12.5124495 49.1965197,12.3748362 48.5903206,12.3748362 C48.0319793,12.3748362 47.4935869,12.4927904 46.9751272,12.7287025 C46.4566674,12.9646145 46.0139892,13.2477048 45.6470792,13.5779817 L43.6609895,11.4783748 Z M65.0081304,21.6225426 L60.7727343,21.6225426 L56.0826911,9.87418087 L60.4138024,9.87418087 L62.9263255,17.4941022 L62.9981119,17.4941022 L65.510635,9.87418087 L69.6981735,9.87418087 L65.0081304,21.6225426 Z M79.6791384,14.4036697 C79.6791384,13.7902984 79.4837219,13.263436 79.092883,12.8230668 C78.7020441,12.3826977 78.1157946,12.1625164 77.3341168,12.1625164 C76.9512542,12.1625164 76.6003021,12.2214935 76.28125,12.3394495 C75.9621978,12.4574056 75.6830314,12.6186097 75.4437423,12.8230668 C75.2044532,13.027524 75.0130248,13.2673643 74.8694513,13.542595 C74.7258778,13.8178258 74.646116,14.1048478 74.6301634,14.4036697 L79.6791384,14.4036697 Z M83.2923859,15.8899083 L83.2923859,16.36173 C83.2923859,16.5190047 83.2844097,16.6684134 83.2684571,16.8099607 L74.6301634,16.8099607 C74.6620686,17.1402376 74.7617709,17.439055 74.9292733,17.706422 C75.0967756,17.973789 75.3121326,18.2057657 75.5753506,18.4023591 C75.8385687,18.5989525 76.1336875,18.752293 76.4607159,18.8623853 C76.7877444,18.9724776 77.1267322,19.0275229 77.4776896,19.0275229 C78.0998413,19.0275229 78.6262694,18.9135005 79.0569898,18.6854522 C79.4877102,18.4574038 79.8386623,18.1625182 80.1098566,17.8007864 L82.8377389,19.4993447 C82.2793976,20.3014457 81.5416006,20.9187396 80.6243257,21.3512451 C79.7070507,21.7837505 78.6422302,22 77.429832,22 C76.536486,22 75.6910105,21.8623867 74.8933801,21.587156 C74.0957497,21.3119252 73.3978336,20.9108807 72.7996108,20.3840105 C72.201388,19.8571402 71.7307932,19.2083918 71.3878121,18.4377457 C71.0448311,17.6670997 70.8733431,16.7863745 70.8733431,15.7955439 C70.8733431,14.8361682 71.040843,13.9672385 71.3758477,13.1887287 C71.7108525,12.4102189 72.165495,11.7496751 72.7397888,11.2070773 C73.3140827,10.6644796 73.9920584,10.2437761 74.7737361,9.94495413 C75.5554139,9.64613219 76.4008894,9.49672346 77.310188,9.49672346 C78.1875814,9.49672346 78.993176,9.64220038 79.726996,9.93315858 C80.4608159,10.2241168 81.0909345,10.6448203 81.6173705,11.1952818 C82.1438066,11.7457433 82.55458,12.4141507 82.8497033,13.2005242 C83.1448265,13.9868978 83.2923859,14.8833501 83.2923859,15.8899083 Z M93.7279978,13.0353866 C93.5525191,12.9882042 93.3810312,12.9567498 93.2135288,12.9410223 C93.0460264,12.9252948 92.8825147,12.9174312 92.7229886,12.9174312 C92.1965525,12.9174312 91.7538743,13.0117946 91.3949406,13.2005242 C91.036007,13.3892539 90.7488644,13.6172988 90.5335042,13.8846658 C90.318144,14.1520328 90.1626084,14.4429866 90.0668927,14.757536 C89.9711771,15.0720855 89.92332,15.3473121 89.92332,15.5832241 L89.92332,21.6225426 L85.9989982,21.6225426 L85.9989982,9.87418087 L89.7797472,9.87418087 L89.7797472,11.5727392 L89.8276048,11.5727392 C90.1307043,10.9750953 90.5614183,10.487551 91.1197595,10.1100917 C91.6781008,9.73263245 92.3241717,9.54390564 93.0579917,9.54390564 C93.2175177,9.54390564 93.3730533,9.55176925 93.5246031,9.56749672 C93.6761529,9.58322419 93.7997837,9.60681505 93.8954994,9.63826999 L93.7279978,13.0353866 Z M107.944359,15.7011796 C107.944359,16.6605553 107.768883,17.529485 107.417925,18.3079948 C107.066968,19.0865045 106.588397,19.7470484 105.982198,20.2896461 C105.375999,20.8322439 104.674095,21.2529474 103.876464,21.5517693 C103.078834,21.8505913 102.225382,22 101.316084,22 C100.422738,22 99.5732739,21.8505913 98.7676672,21.5517693 C97.9620606,21.2529474 97.2601564,20.8322439 96.6619336,20.2896461 C96.0637108,19.7470484 95.5891278,19.0865045 95.2381705,18.3079948 C94.8872131,17.529485 94.7117371,16.6605553 94.7117371,15.7011796 C94.7117371,14.7418039 94.8872131,13.876806 95.2381705,13.1061599 C95.5891278,12.3355138 96.0637108,11.6828336 96.6619336,11.1480996 C97.2601564,10.6133656 97.9620606,10.2044575 98.7676672,9.92136304 C99.5732739,9.63826857 100.422738,9.49672346 101.316084,9.49672346 C102.225382,9.49672346 103.078834,9.63826857 103.876464,9.92136304 C104.674095,10.2044575 105.375999,10.6133656 105.982198,11.1480996 C106.588397,11.6828336 107.066968,12.3355138 107.417925,13.1061599 C107.768883,13.876806 107.944359,14.7418039 107.944359,15.7011796 Z M104.16361,15.7011796 C104.16361,15.3237203 104.0998,14.9541302 103.972179,14.5923984 C103.844559,14.2306666 103.661106,13.9121901 103.421817,13.6369594 C103.182528,13.3617286 102.887409,13.1376155 102.536452,12.9646134 C102.185495,12.7916112 101.778709,12.7051114 101.316084,12.7051114 C100.853458,12.7051114 100.446673,12.7916112 100.095715,12.9646134 C99.7447578,13.1376155 99.4536271,13.3617286 99.2223143,13.6369594 C98.9910015,13.9121901 98.8155254,14.2306666 98.6958809,14.5923984 C98.5762363,14.9541302 98.5164149,15.3237203 98.5164149,15.7011796 C98.5164149,16.0786388 98.5762363,16.4482289 98.6958809,16.8099607 C98.8155254,17.1716925 98.9949896,17.4980326 99.2342787,17.7889908 C99.4735678,18.079949 99.7686866,18.3119257 100.119644,18.4849279 C100.470601,18.6579301 100.877387,18.7444299 101.340012,18.7444299 C101.802638,18.7444299 102.209423,18.6579301 102.560381,18.4849279 C102.911338,18.3119257 103.206457,18.079949 103.445746,17.7889908 C103.685035,17.4980326 103.864499,17.1716925 103.984144,16.8099607 C104.103788,16.4482289 104.16361,16.0786388 104.16361,15.7011796 Z M118.547472,21.6225426 L118.547472,19.9947575 L118.499615,19.9947575 C118.356041,20.2621245 118.168601,20.5137603 117.937288,20.7496723 C117.705975,20.9855844 117.434785,21.1900385 117.123709,21.3630406 C116.812633,21.5360428 116.469657,21.6775879 116.094771,21.7876802 C115.719885,21.8977725 115.325064,21.9528178 114.910296,21.9528178 C114.112666,21.9528178 113.438678,21.8112727 112.888313,21.5281782 C112.337948,21.2450838 111.891282,20.8794256 111.548301,20.4311927 C111.20532,19.9829598 110.958058,19.4718246 110.806508,18.897772 C110.654958,18.3237193 110.579185,17.7378798 110.579185,17.1402359 L110.579185,9.87418087 L114.527435,9.87418087 L114.527435,16.2437746 C114.527435,16.5740515 114.551364,16.8885961 114.599222,17.1874181 C114.647079,17.48624 114.738806,17.753603 114.874403,17.9895151 C115.01,18.2254271 115.189464,18.4102221 115.412801,18.5439056 C115.636137,18.6775891 115.931256,18.7444299 116.298166,18.7444299 C116.984128,18.7444299 117.506568,18.4927941 117.865502,17.9895151 C118.224435,17.486236 118.403899,16.8964647 118.403899,16.2201835 L118.403899,9.87418087 L122.328221,9.87418087 L122.328221,21.6225426 L118.547472,21.6225426 Z M129.916307,12.7758847 L129.916307,17.2581913 C129.916307,17.8086528 130.023986,18.2214927 130.239346,18.4967235 C130.454706,18.7719542 130.841551,18.9095675 131.399892,18.9095675 C131.591323,18.9095675 131.794716,18.8938403 132.010076,18.8623853 C132.225436,18.8309304 132.404901,18.7837487 132.548474,18.7208388 L132.596332,21.5517693 C132.325137,21.6461342 131.982161,21.7287021 131.567394,21.7994758 C131.152626,21.8702494 130.737864,21.9056356 130.323096,21.9056356 C129.525466,21.9056356 128.855467,21.8073404 128.313078,21.6107471 C127.770689,21.4141537 127.335987,21.1310634 127.008959,20.7614679 C126.68193,20.3918723 126.446633,19.9515098 126.303059,19.440367 C126.159486,18.9292242 126.0877,18.3591119 126.0877,17.7300131 L126.0877,12.7758847 L124.173397,12.7758847 L124.173397,9.87418087 L126.063772,9.87418087 L126.063772,6.78374836 L129.916307,6.78374836 L129.916307,9.87418087 L132.715976,9.87418087 L132.715976,12.7758847 L129.916307,12.7758847 Z M139.083693,6.1231979 C139.083693,6.42201984 139.023872,6.70117826 138.904227,6.96068152 C138.784582,7.22018478 138.625059,7.44429788 138.425651,7.63302752 C138.226244,7.82175717 137.986958,7.9711659 137.707787,8.08125819 C137.428617,8.19135048 137.137486,8.24639581 136.834387,8.24639581 C136.196282,8.24639581 135.661878,8.03800995 135.231158,7.62123198 C134.800437,7.20445401 134.58508,6.70511431 134.58508,6.1231979 C134.58508,5.84010343 134.640913,5.56880864 134.752582,5.30930537 C134.86425,5.04980211 135.023774,4.82568902 135.231158,4.63695937 C135.438541,4.44822972 135.677827,4.29488919 135.949021,4.17693316 C136.220216,4.05897713 136.515334,4 136.834387,4 C137.137486,4 137.428617,4.05504532 137.707787,4.16513761 C137.986958,4.27522991 138.226244,4.42463864 138.425651,4.61336828 C138.625059,4.80209793 138.784582,5.02621102 138.904227,5.28571429 C139.023872,5.54521755 139.083693,5.82437596 139.083693,6.1231979 Z M134.872226,21.6225426 L134.872226,9.87418087 L138.796547,9.87418087 L138.796547,21.6225426 L134.872226,21.6225426 Z M149.997881,21.6225426 L149.997881,15.2057667 C149.997881,14.8754898 149.969964,14.5609451 149.91413,14.2621232 C149.858296,13.9633013 149.76657,13.6998701 149.638949,13.4718218 C149.511328,13.2437734 149.331864,13.0629102 149.100551,12.9292267 C148.869238,12.7955432 148.578108,12.7287025 148.22715,12.7287025 C147.876193,12.7287025 147.56911,12.7955432 147.305892,12.9292267 C147.042674,13.0629102 146.823329,13.2477052 146.64785,13.4836173 C146.472371,13.7195294 146.340764,13.9908242 146.253025,14.2975098 C146.165285,14.6041955 146.121416,14.922672 146.121416,15.2529489 L146.121416,21.6225426 L142.173166,21.6225426 L142.173166,9.87418087 L145.977844,9.87418087 L145.977844,11.5019659 L146.025701,11.5019659 C146.169275,11.2503264 146.356715,11.0026225 146.588028,10.7588467 C146.819341,10.5150709 147.090531,10.306685 147.401607,10.1336828 C147.712683,9.96068066 148.051671,9.81913554 148.41858,9.70904325 C148.78549,9.59895096 149.176323,9.54390564 149.591091,9.54390564 C150.388722,9.54390564 151.066697,9.68545075 151.625039,9.96854522 C152.18338,10.2516397 152.634034,10.6172979 152.977015,11.0655308 C153.319996,11.5137637 153.567258,12.0288306 153.718808,12.6107471 C153.870358,13.1926635 153.946131,13.7745711 153.946131,14.3564875 L153.946131,21.6225426 L149.997881,21.6225426 Z M165.386752,14.4036697 C165.386752,13.7902984 165.191336,13.263436 164.800497,12.8230668 C164.409658,12.3826977 163.823409,12.1625164 163.041731,12.1625164 C162.658868,12.1625164 162.307916,12.2214935 161.988864,12.3394495 C161.669812,12.4574056 161.390645,12.6186097 161.151356,12.8230668 C160.912067,13.027524 160.720639,13.2673643 160.577065,13.542595 C160.433492,13.8178258 160.35373,14.1048478 160.337777,14.4036697 L165.386752,14.4036697 Z M169,15.8899083 L169,16.36173 C169,16.5190047 168.992024,16.6684134 168.976071,16.8099607 L160.337777,16.8099607 C160.369683,17.1402376 160.469385,17.439055 160.636887,17.706422 C160.80439,17.973789 161.019747,18.2057657 161.282965,18.4023591 C161.546183,18.5989525 161.841302,18.752293 162.16833,18.8623853 C162.495358,18.9724776 162.834346,19.0275229 163.185304,19.0275229 C163.807455,19.0275229 164.333883,18.9135005 164.764604,18.6854522 C165.195324,18.4574038 165.546276,18.1625182 165.817471,17.8007864 L168.545353,19.4993447 C167.987012,20.3014457 167.249215,20.9187396 166.33194,21.3512451 C165.414665,21.7837505 164.349844,22 163.137446,22 C162.2441,22 161.398625,21.8623867 160.600994,21.587156 C159.803364,21.3119252 159.105448,20.9108807 158.507225,20.3840105 C157.909002,19.8571402 157.438407,19.2083918 157.095426,18.4377457 C156.752445,17.6670997 156.580957,16.7863745 156.580957,15.7955439 C156.580957,14.8361682 156.748457,13.9672385 157.083462,13.1887287 C157.418467,12.4102189 157.873109,11.7496751 158.447403,11.2070773 C159.021697,10.6644796 159.699672,10.2437761 160.48135,9.94495413 C161.263028,9.64613219 162.108503,9.49672346 163.017802,9.49672346 C163.895196,9.49672346 164.70079,9.64220038 165.43461,9.93315858 C166.16843,10.2241168 166.798549,10.6448203 167.324985,11.1952818 C167.851421,11.7457433 168.262194,12.4141507 168.557317,13.2005242 C168.852441,13.9868978 169,14.8833501 169,15.8899083 Z" id="saveroutine" fill="#FFFFFF"></path>
        </g>
    </g>
</svg>