<?xml version="1.0" encoding="UTF-8" standalone="no"?>
<svg width="40px" height="40px" viewBox="0 0 40 40" version="1.1" xmlns="http://www.w3.org/2000/svg" xmlns:xlink="http://www.w3.org/1999/xlink">
    <!-- Generator: Sketch 39.1 (31720) - http://www.bohemiancoding.com/sketch -->
    <title>new-routine</title>
    <desc>Created with Sketch.</desc>
    <defs></defs>
    <g id="Page-1" stroke="none" stroke-width="1" fill="none" fill-rule="evenodd">
        <g id="new-routine">
            <polygon id="Path-3" stroke="#979797" stroke-linejoin="round" points="12.5 8.5 22.5 8.5 22.5 4.5 12.5 4.5"></polygon>
            <path d="M28.5,37.5 C32.3659932,37.5 35.5,34.3659932 35.5,30.5 C35.5,26.6340068 32.3659932,23.5 28.5,23.5 C26.1773031,23.5 24.1188263,24.6312611 22.8454897,26.3728632 C21.999432,27.5300559 21.5,28.9567037 21.5,30.5 C21.5,34.3659932 24.6340068,37.5 28.5,37.5 Z" id="Oval" stroke="#585858"></path>
            <path d="M9.5,13.5 L21.5,13.5" id="Path-5-Copy-8" stroke="#979797" stroke-linecap="round"></path>
            <polyline id="Path" stroke="#979797" stroke-linecap="round" stroke-linejoin="round" points="12.3276978 6.52685547 6.5 6.5 6.5 34.5005493 20 34.5005493"></polyline>
            <polyline id="Path-2" stroke="#979797" stroke-linecap="round" stroke-linejoin="round" points="23.0091553 6.4977417 28.5 6.4977417 28.5 21"></polyline>
            <path d="M25.5,30.5 L31.5827627,30.5" id="Line" stroke="#585858" stroke-linecap="square"></path>
            <path d="M28.5,33.5 L28.5,27.5" id="Line" stroke="#585858" stroke-linecap="square"></path>
        </g>
    </g>
</svg>