<?xml version="1.0" encoding="UTF-8" standalone="no"?>
<svg width="34px" height="34px" viewBox="0 0 34 34" version="1.1" xmlns="http://www.w3.org/2000/svg" xmlns:xlink="http://www.w3.org/1999/xlink">
    <!-- Generator: Sketch 39.1 (31720) - http://www.bohemiancoding.com/sketch -->
    <title>workouts</title>
    <desc>Created with Sketch.</desc>
    <defs></defs>
    <g id="Page-1" stroke="none" stroke-width="1" fill="none" fill-rule="evenodd">
        <g id="workouts">
            <polygon id="Path-3" stroke="#979797" stroke-linejoin="round" points="9.5 5.5 19.5 5.5 19.5 1.5 9.5 1.5"></polygon>
            <path d="M25,32.5 C28.5898509,32.5 31.5,29.5898509 31.5,26 C31.5,22.4101491 28.5898509,19.5 25,19.5 C22.84321,19.5 20.9317673,20.5504567 19.7493833,22.1676586 C18.9637583,23.2421948 18.5,24.5669391 18.5,26 C18.5,29.5898509 21.4101491,32.5 25,32.5 Z" id="Oval" stroke="#585858"></path>
            <path d="M6.5,21.5 L16.5,21.5" id="Path-5-Copy-4" stroke="#979797" stroke-linecap="round"></path>
            <path d="M6.5,18.5 L19.5,18.5" id="Path-5-Copy-5" stroke="#979797" stroke-linecap="round"></path>
            <path d="M6.5,15.5 L22.5,15.5" id="Path-5-Copy-6" stroke="#979797" stroke-linecap="round"></path>
            <path d="M6.5,12.5 L22.5,12.5" id="Path-5-Copy-7" stroke="#979797" stroke-linecap="round"></path>
            <path d="M6.5,9.5 L22.5,9.5" id="Path-5-Copy-8" stroke="#979797" stroke-linecap="round"></path>
            <polyline id="Path" stroke="#979797" stroke-linecap="round" stroke-linejoin="round" points="9.32769775 2.52685547 3.5 2.5 3.5 30.5005493 17 30.5005493"></polyline>
            <polyline id="Path-2" stroke="#979797" stroke-linecap="round" stroke-linejoin="round" points="20.0091553 2.4977417 25.5 2.4977417 25.5 17"></polyline>
            <polyline id="Path-4" stroke="#585858" stroke-linecap="round" points="22.5 26.4633789 24.1030113 27.9106562 27.9401855 24"></polyline>
        </g>
    </g>
</svg>